<svg id="Layer_1" data-name="Layer 1" xmlns="http://www.w3.org/2000/svg" viewBox="0 0 473 107.48"><defs><style>.cls-1{opacity:0.5;}.cls-2{fill:#53585e;}</style></defs><title>Brush2</title><g class="cls-1"><path class="cls-2" d="M588.34,257.13c-.92,1.57,2,.27,1.76,1.32-6.18.4-11.54-.08-16.48.44,6.38,2.07,13.34-.05,16.48,3.95,13.48-1.12,22-1.32,30.62-6.58C612.15,258.58,597.43,260.33,588.34,257.13Zm33.56,1.76a10.47,10.47,0,0,0-2.35,3.5,3.28,3.28,0,0,1-1.19-3.06C619.76,259.33,620.1,258.57,621.9,258.89ZM521.8,260.2a146.24,146.24,0,0,1-18.25,2.19C508.75,261,515.29,260.61,521.8,260.2Zm-325.61,1.32c2.65-1.22,7,.06,10,0C204.39,262.83,199.42,261.71,196.19,261.52Zm304.41.87c-1.62,1-4.66.91-7.65.88C495,262.58,498,262.65,500.6,262.39Zm-248.47.88v1.31c-1,.16-1.12-.33-1.18-.87a3.44,3.44,0,0,1-1.77.44C249.27,263.19,250.67,263.21,252.13,263.27Zm42.39.88c-1.83.9-5.52-.55-8.83,0C288.35,263.59,292.69,262.86,294.52,264.15ZM510,263.71c1.81-1.32,4.61.34,6.47.44C515.48,265.57,510.37,265.36,510,263.71Zm32.38,0c4.32-1,11.19-.15,16.49-.44C554.18,264.32,549.39,264.28,542.41,263.71Zm-204.91.87c.78.16.93.78,1.77.88-.25,1-2.9.18-4.12.44C335.31,265,337.76,265.79,337.5,264.58Zm149,.88c1.2-1,4.89-.15,7.07-.44C492.34,266,488.65,265.18,486.47,265.46Zm-229.63.44c7.54-1.07,19.55,1.28,27.67.88-.95,2.6-5,.35-7.06,1.75,0-.43.72-.34,1.17-.44C272.13,267.32,263.76,267.4,256.84,265.9Zm52.4,1.75c-5.49.94-16.28-.5-23,.44.85-.77.55-1-1.17-.87C291.07,266.11,303.24,267.14,309.24,267.65Zm8.25.88c.2-.5,1-1.11,1.17-.44,1.58.17,7.17-.4,5.89.44Zm-131.31,2.19c1-1,4.5-.15,6.48-.44C191.65,271.29,188.16,270.45,186.18,270.72Zm14.13,7.89c2-1,6.47-.15,9.42-.44h10C214.44,279.19,206.59,278.32,200.31,278.61Zm-4.12.88c-2.32,1.55-3.89,0-7.07.88C189.36,278.49,194.06,280,196.19,279.49Zm12.95,3.95H205C205.5,283,209.28,281.6,209.14,283.44Zm20.61.88c-3.1-.5-5.48,1.17-7.65,0C223.54,284.86,228.45,282.2,229.75,284.32Zm-17.66,0c6.38-1.46,5.47.82,0,0Zm15.9,3.5c-5.35,1.08-5.86,1.1-13,.88C218.83,286.89,221.89,287.73,228,287.82Zm-16.49,7.46c-.94.75-2.65.93-4.71.87C207.45,294.45,209.67,295.22,211.5,295.28Zm8.24,8.32c.26-.72,4.45-.72,4.71,0C224.14,305.7,221.28,303.36,219.74,303.6Zm-14.13,0c.36,1.73-3.23.51-4.71.88C201.34,302.94,203.84,304.68,205.61,303.6Zm9.42.88c-1.87,1.08-6.14.2-8.24,0C208.51,303,211.9,305,215,304.48Zm-24.14,1.31c-.82,1-4.1.16-5.89.44A7.74,7.74,0,0,1,190.89,305.79Zm458.68,7c-.71.78-3.62-.5-5.89,0C642.33,312.12,649,312.12,649.57,312.81Zm-439.84,1.75c1.05.39,1.5,1.22,3.54.87.5.3-5.46,1.22-5.89.88.09-.52,1.07-.37,1.76-.44C208,314.86,209.29,315.38,209.73,314.56Zm19.43,9.64A75.1,75.1,0,0,1,213.27,326C217.44,324.59,221.52,324.78,229.16,324.2ZM208.56,326c-2.09,2.05-7-.36-11.19.43C197.67,325.44,205.33,326.2,208.56,326Zm1.76,2.62c-1.34,1.26-3.45-.61-5.89,0C203.49,327.59,209.06,328.39,210.32,328.58Zm8.83.88c1.2-1,4.89-.15,7.07-.44C225,330,221.33,329.18,219.15,329.46ZM639,355.32c1.92-1.39,4.16.69,6.48.45-1,.68-3.14.58-4.71.87Q640.91,355.2,639,355.32Zm-78.31,0c0,1.35-3.12,1.57-4.12.88C557.24,355.4,559.61,355.85,560.66,355.32Zm-21.78,1.76c-.44,1-3.31.17-4.71.44C535.29,356.58,537.24,356.56,538.88,357.08Zm42.39,0c7.05-1.3,15.39.22,21.2,1.31C596.58,358.83,588.52,357.09,581.27,357.08Zm-191.95,6.13c-1.72,1.11-5.67.16-7.65,0C383.45,361.72,387.28,362.48,389.32,363.21ZM394,265.9c-1.31,3.82,18.18.6,23,2.63-2.58-1.69,2.39-.06,4.12-.88-1.55,1.12.81.87,2.36.88-4.32-2.57,11.75.33,18.84-.44-14-1.65-21-1.95-34.15-1.31.12-1.54,3.27-.18,5.89-1.32-.54-.77-2.07-.8-2.95-1.31,3.25-1.53,4.28,2.36,8.25,1.75A2.93,2.93,0,0,0,417,265c.39-.44,1.36-.45,1.18-1.31,21.48,1,43.79,2.41,67.13,1.31,6.15,1.53,16,1.08,25.31,1.32,34.07.88,66.4-2.17,100.69-3.07-.25.54-.75.9-1.77.88,7.56,1.38,14.58-1.42,21.2-2.2-1.39,1.45-4.69,1.48-7.06,2.2,3.57.46,10.56-.32,15.3-.44-3.52,1-8.14,1.24-13,1.31,3.59,3.29,11,2.46,14.72,4.39-1-.52-.56,2,1.18,2.63,3.13,1.09.39-.59,0,.44.13-.36,2.68,2.23.59,2.19a95.47,95.47,0,0,1,14.13,3.07c-4.56.31-15.74-4-18.25,1.31,2.73,2.94,5.76,5.65,13,5.27.32.77.3,1.81,1.18,2.18-.09.73-2.46-.46-4.13,0-.59.29-.6,1-1.76.88.41,1.3,1.93,1.78,2.94,2.63-1.28.67-5.08-2.78-5.3.88.08,1.25,2.46.8,4.12.87-.08,1-1.48.94-2.94.88.47,2.05,2,3,0,3.95,3.1,2.45,3.77,1.91,7.07,3.5-.89.91-4-.22-5.3-.44-.6.43-1.2.87-1.77,1.32,1.11,1.36,4.7-.43,5.3.43,0,.63-.1,1.25.59,1.32-1.4.87-3.82-1.23-6.48-.88.12.59,2.45.82,0,.88.81.86,3.61.24,4.71.88a28.78,28.78,0,0,1-6.47.88c-.41,1.17,1.21.85,1.76,1.31,1.29.08,1.88-.36,1.77-1.31,2.1,1.24,2.54,2.82,4.71,3.06,1,1.18-2.6.85-.59,1.32-1.74,2-10.29-.28-12.36,1.31,3.08,1,6.94-.94,10.59.88-1.88,1.45-6.23,0-11.18.44,2.14,1.06,4.2,2.4,4.12,3.94-.19.6-1.47.37-2.36.44.94,2.52,5.52,2.33,10,2.2-.05.61-.09,1.24.59,1.31-1.17.45-2.69.19-5.3.44.08,1,2.5.18,3.53.43-.25,1-2.89.19-4.12.44v-1.31h-4.71c.09,1.25,2.46.8,4.12.87-.76,3.1,2.63,4.31,5.3,3.51.63.41.19,1.61,1.77,1.32-.83.65-1.88.94.59.88,0,.42-.72.33-1.18.43.25,1,3.13,0,3.53.88-3.86-.46-8.62.37-12.36.88,1.3,1.21,4.2-.07,5.89,0-.07.82-2,.3-1.77,1.31,1.54,2.23,8.19-.18,10,.88,6.63.39-1.66.13-2.94.87a10.36,10.36,0,0,0-5.89,0c.14.78,1,1,2.35.88-.44,1.4-4.35-.46-4.12.44-.42-.41,0-1.76-2.94-1.32,1.31,1.7-1.55,5.16-5.3,5.7.5.66,1.89.64,2.94.88.41,1.18-1.21.85-1.76,1.31,2.38,2.41,8.9-.89,10.59,1.76-.95,1.57-10.48.3-10,2.63-3.48,1-9.23-1.26-13.55.87,7.84.74,17.09.44,23,2.63-.44.79-1.07.07-1.77,0s-.5.8-.59,1.31c-4.53-.18-6.6.06-9.42-.87-3.16,1.75-8.57,1.8-14.13,1.76,1.81-1.05,8.5-1.29,12.36-1.32-8.13-1.33-13.84.73-22.37,0,0,.42.72.34,1.18.43-.88.67-2.64.67-2.36,2.21-19.13,4.15-49.56,2.32-68.89,3.06,0-.42.72-.34,1.18-.44-4.19-.39-10.33,1-15.9,0,.09-1,1.48-.94,2.94-.88-9.84.23-18.15,2-28.85.44-8.15-1.21,2.4-.32,2.36-.44-.91-2.29-10.84,1.57-12.37.44.14-.63,1.76-.15,1.77-.87-1.49-.88-2.84.45-5.3.87.15-.47,1.17-.3,1.18-.87-21.83-.62-44.63,1.85-67.72,1.75-1,1.17,2.6.85.6,1.32,1,.79,1.86-.31,2.94.88-.24.84-2.7,0-1.77,1.75-1.64-.83-1.57-2.93-2.94-3.95-11.73-2.35-21.28,2.08-34.15,1.75.41.87,1.57,1.17,2.94,1.32-.23,1.79-7.53-3.9-8.83,0-7-2-12.25-1.32-20.61-.44.07-.79-.72-.93-.59-1.75-1.8.27-1.67,2-4.71,1.32.09-.82,2-.27,2.36-.88-4.77-1.36-10.19.59-15.31.43,1.19-.9-.24-.87-1.18-1.31-.32.65-.36.68-1.77,1.31-1-.28-.36-1,.59-.87-7.91-.75-21.24.18-33,.87.07,1,2.5.19,3.53.45-.33.41-1.64.65-.59.87-18.86,0-41.4-.52-57.11-1.75,1.5-1.52,5.39-1.25,8.83-1.32,1.52-.1-.81-.75,0-1.75,2.15.39,3.14-.78,4.12,0,.42,1.19-2.77-.31-2.35.87,1,1,2.88-1,4.71-.87-4.69-1.86-12.34-1.05-16.49-2.63-.69.07-.5.79-.59,1.32-4.07-1.73-12.79.35-18.84,0,9.63-2.54,23.91-1.17,33-2.21-3.9-2.33-8.29-.44-11.19-.87-.74-.11-1.48-1.21-1.77-1.31-.59-.21-.49.89-.59.87-1-.13-1.48-1.17-2.35-1.31-3.47-.56-7.12,1.79-12.37.44.1.51,1.07.37,1.77.44-3.39,1.3-4.28-.87-8.25,0,.54-.93,7.36-.95,11.19-.88-2.4-2.13-7.53-.69-11.19-.88,1.35.08-4.24.4-.59-.44,1.58-.36,9.87.14,12.37-1.31.18,1.37,4.89.1,9.42.44-3.14-1.59,4.79-.61,7.07-.87-2.46-1-3.23-2.32-5.89-2.2.63-1,3.7-.17,5.3-.44-2-.88-5-.93-8.25-.88-.16-.71.56-.75.59-1.31-4.19.82-8.33-.62-10,.44-1.77-1.75-4.58-2.73-9.42-2.19-1.51-.6,2.92-.42,3.53-.88-3.12-1.4-5.82-1.19-9.42-.87,3-2.26,8.13-.24,13.55,0-1.7-2.63,2.51.92,4.12-1.32-.11.35-.59.44-.59.87,2.88.54,2.29-1.51,4.71-1.31a13.39,13.39,0,0,0-5.89,0c-1.32-.59,2.9-.72,3.53-1.32-1.21-1-5.08-.3-6.47,0,2.29-1.5-1.72-1-4.12-1.31,4.32-1,6.55.39,10-.88,0-.65-3.5-.63-.59-.87-4.4-1-9.17,0-11.78,0,1.84-1.54,3.15-1.07,7.07-1.32-1.09-2-4.88.73-5.89-1.31.15-.91,2.59-.13,2.94-.88-2.74-1.46-8.51-.68-13-.88,3-2.9,9.67-1.32,14.13-2.63-1.21-.73-6.45-.73-7.65,0-2.07-.75,1.15-1.12,2.35-.88-3.43-1.71-3.42,1.22-5.89,0,.33-1.36,3.42-.67,4.71-1.31-.13-.56-1.75-.57-1.76,0-.33-1.71,7.62-1,10-2.19-.16-1.1-4.85.55-1.77-.44-2.28-.33-2-.72-4.71-.88,4.37-.48,3.92-1.55,8.24-.87-.71-.64-2.57-.43-1.76-2.19-1.55-.14-.47,1.7-2.36,1.31v-1.31c-4-.16-5.82.38-8.83,0,4.58-1.19,6.11-1.51,10.6-.88-2.33-2-9.89-1.56-11.78-.44-.72-.92.44-.63-2.35-.44,1.45-.76,1.18-1-1.18-.88.93-1.08,4.12-.18,5.3,0,.36-2.83-3.47-.85-4.71-1.75,2.73-1.21,6,.08,8.24-.88a42.79,42.79,0,0,0-5.89-.43c2.67-.61,6-2.68,8.83-1.75-.87-1.94-4.42.47-6.47-.88,2.56-1.7,6.55.37,10-1.32-.5-1.13-2.59.84-3.54-.44.14,1.24-5.39.2-7.06-.44,7-.55,10.62-.19,18.25-1.31-4.2,0-7.27-1.37-12.36-1.75,2.54,1.66-1.66.42-2.36-.44-.5.94-2.16,1-4.12.87,0-.42.72-.33,1.18-.43-6.79-1.31-14.73-.44-24.14-1.32,12.43-1.69,24.83,1,33-.87-13.07-1.55-20.45-1.72-37.69-2.2,7.16-1.62,17.3.49,24.74-1.31.88.38-.17.65.58,1.75,2.51-.92,12.62.38,17.08,0-.09-.51-1.07-.37-1.77-.44,1.12-1.47,2.38-.28,4.71-.44-1.22-2.41-5.92-.17-10-.87.1.51,1.08.37,1.77.44-.9,1.74-3.45-1.13-3.53,0-1.72-.49.75-1.43,1.76-1.32-.51-.78-2-1.35,0-1.75-.18-1-1.82-1-2.35-1.75a3.54,3.54,0,0,1-1.77.43h-5.3c.44-1,3.31-.17,4.71-.43,6.32-2.06,10.27-1.54,17.67-3.51,1.62,1.89,5.38-.82,8.83-.44-1-.11-6.72-2.75-8.24,0-1.05-.32-.09-.8,0-1.31-1.72.39-2,.55-2.94-.45-.93.16.51.78-.6.88-1.12-.66-2.1-1.29-5.88-1.75-.22.74.45.83,1.17.87-11-.52-22.39-.56-35.32-1.31-.27-1.22,3.2.34,2.94-.88-2-1-6.47-.15-9.42-.43-.56,1.58,2.32.61,3.53.87,1.5.68-4.84.68-5.3,0,1.75-2.2,8.05-1,12.37-1.31a1.76,1.76,0,0,0-.59,1.31h1.77c0-1-.35-.86,1.17-2.19,1.53-.46,1.7,2.95,2.36.44,2.43.41.51,1.34,2.94,1.75,1.68-2.19,17.53.78,24.14-1.31-.73,1.42,1.91.33,1.18,1.75,3.72-1.35,4.65-1,8.24-.44,1.24-.12-.85-1.17.59-1.75-.46-1.64-3.64,1.15-2.94-.88,2.21-.05,2-.8,2.94-.87a2,2,0,0,1,1.18,2.19,2.62,2.62,0,0,0,2.94-1.32c-2.62,1.28,0-.85-2.94-.44.15-.47,1.17-.29,1.18-.87-1.43-.83-4.7-.3-6.48-.88,5.25-.5,13.44-.84,14.13-2.19.27-1,3.08.75.59.88.92.22,4.75-1.13,7.66-.88-.75-.59-1.77-.86-.59-1.75-2.59-.5-1.94,0-4.12.43a1.76,1.76,0,0,0,.59-1.31c-1.93.45-1.25,1.11-2.95,0,13.77-.3,33.31-.94,47.11-1.32.79-1.12,2,1.07,3.53.88,2.33-.14-.66-1.52,1.76-1.32,4.28,2.28,22.82.63,31.8.44-7.89-.25-14.43-.71-21.79-.87,12.14-1.86,23.86-.07,33.57-3.07a5.36,5.36,0,0,1-3,1.75c15.25,1.16,25.88-.95,37.69-.44-.09-1-1.49-.94-2.95-.87C386.64,265.64,393.63,267.08,394,265.9Zm78.9,1.32c10.36.26-6.83-1.7-6.48-.44C469.41,266.48,471.2,267.17,472.93,267.22Zm18.25.87c7.72-.34,4-1.65-1.76-.44C490.11,267.72,491.09,267.58,491.18,268.09Zm20,0c.51.7,4.93.64,7.06,0C516.13,267.62,511,267.83,511.21,268.09Zm-259.08,9.65c1.33-.32,4.59.79,4.12-.88h-4.12Zm4.71,1.31c2.6-.31,4.12,1.12,5.3-.44C260.72,278.75,255.41,278.24,256.84,279.05Zm4.12,6.14c3.44.37,4-1.39,7.66-.87C267.36,282.26,262.6,284.66,261,285.19Zm-4.71-.44c1.21-.26,4.09.71,3.53-.88C258.22,283.88,256.31,283.63,256.25,284.75Zm-13.54,44.71c-1,.89,5.13.25,7.06.44C249.62,328.2,243.83,329.05,242.71,329.46Zm180.17,23.23c1.22-.26,4.09.71,3.53-.87h-3.53ZM201.49,271.16c1.23-1.42,7.65-.11,10.6,0C209.57,271.78,204.19,271.2,201.49,271.16Zm446.32,1.32c1.59-.87,6-.11,7.06.87C653.74,274.33,649.74,273.37,647.81,272.48Zm-393.33,2.63c1.65.25-5,.67-7.06,0C249.26,273.76,251.77,275.64,254.48,275.11Zm-30,3.5c.86-1.89,3.24,1.89,3-.44.64.11.4.88,1.17.88C227.45,280.42,226,278.37,224.45,278.61Zm17.08,7c1.48.34-3.59.05-6.48,0,1.32-1.07,3.85-1.23,5.89-1.76C241.63,285,239.12,285.76,241.53,285.63Zm-49.46,2.63c-.41-.11,3.68-.36,5.88-.88.22.74-.46.83-1.17.88,4.38.81,6.41-.22,11.19-.44-.28.93.84.83,1.76.88C205.48,290,197.32,289.48,192.07,288.26Zm-2.36,8.33c-1-.89,4.82-1.33,5.89-.88-.11.35-.59.43-.59.88,8.8,0-2.71,1.12-3.53-.44C190.53,296,190.47,296.57,189.71,296.59Zm37.1,8.33c.7-.62.23,0,0,.43-7.1.72-15.43-.92-4.71-.87C222.36,304.48,224.9,305.35,226.81,304.92Zm-5.89,6.13c2.26.19,3,3.81,6.48,1.76C226.37,315.77,221.25,312.73,220.92,311.05Zm426.3,4.82c.67.09.32.44,0,.44,1.81,1.37,4.82-.58,6.47.44C652.74,317.42,644.66,317.87,647.22,315.87ZM217.39,322c.67.08.32.44,0,.44-.27.71,3.2.71,2.94,0,.92.15-.52.77.59.87-1.29.48-2.93.23-6.48.44C214.91,322.8,217.21,323.2,217.39,322Zm-2.95,9.2c.05-1.8,3.17-1.29,4.13-.43C220,331.16,215.86,330.64,214.44,331.21ZM613.07,354c2.23-1.36,5.3.42,8.24,0C621.3,355.26,615.9,353.52,613.07,354Zm-302.65,3.51c-.47-1.1,3.41-1.17,4.71-.44C316.58,357.45,311.83,356.88,310.42,357.52Z" transform="translate(-185 -256.26)"/></g></svg>