<svg id="Layer_1" data-name="Layer 1" xmlns="http://www.w3.org/2000/svg" viewBox="0 0 473 129.75"><defs><style>.cls-1{fill:#53585e;}</style></defs><title>Brush</title><path class="cls-1" d="M195.75,248.63c1.88-.22,3.37,2.26,5,.88-.3-.7-2,.1-1.65-1.31,0-.27-.06-.52-.41-.44C198.47,249.79,196.44,247.14,195.75,248.63Zm-3.31,0h.83c0,1.2.69.89,0,1.75h-.83C191.75,249.52,192.48,249.83,192.44,248.63Zm38.87,6.14c-.71.16-.78-.34-.83-.88-.9-.28-1.32,1.25-1.24-.44C230.38,253,231.56,252.77,231.31,254.77Zm298.94,7.89c.35-.08.38.17.4.44.21,1.39,3.73-.74,3.32,1.31-.34-.08-.42-.44-.83-.44s-.29.88-.83.88c-1.38,0-1.41-1.43-2.9-1.31C529.52,263.06,530.24,263.24,530.25,262.66Zm-17.79,1.75c-1.53.31-1.77-.74-3.3-.44C509.41,262.92,512.13,262.55,512.46,264.41Zm-46.31.44c-.32,1.41-2.91.42-2.48,2.63-.73-.54-.08-2.54-2.07-1.75C461,264.94,465.21,265.47,466.15,264.85Zm33.91.88h.82c-.07.37.17.41.42.44,0,.42-.51.34-.83.43,5,1.54,2.32,1.46-1.24.88C499.41,266.79,500.53,267.11,500.06,265.73ZM467.81,267h3.3C470.89,268.46,467.75,268.9,467.81,267Zm-101.3,3.51c1.06.05,2.12.08,2.07,1.31C367.4,272,366.32,271.92,366.51,270.55Zm35.14,0c1.78-.16,1.6,1.09,1.24,2.19-1.6-.29-1.47,0-2.48-.44C400.58,271.46,402.31,272.27,401.65,270.55Zm253.46,3.94c.39-1.08,1.59.61,2.89,0C657.45,276.52,655.9,275.36,655.11,274.49Zm-456,.44c.35-.08.39.17.41.44.46,1.12,3.2-.17,3.72.88C202.85,277.63,198.85,276.88,199.06,274.93Zm160.84.44c.92-1.08,3.9-.37,2.48,1.32C361.37,276.44,361.5,275,359.9,275.37Zm72.35-.44c.29,1.52-1.45,1.58-2.07.88C430.53,275.16,431.51,275.18,432.25,274.93Zm-6.62,2.19c-.3,1-2.31.18-3.3.45C422.67,276.56,424.87,276.36,425.63,277.12Zm-60.77.88c.15,1.72-3.3.9-2.89-.43C362.38,277.12,364.21,277.4,364.86,278Zm-5,.44c-.5,1.53-1.42,1.23-2.48.44C357.77,277.31,358.43,278.82,359.9,278.44Zm74,.44c1.26-.32,1.5.45,2.47.44C435.8,280,433.69,280.85,433.91,278.88Zm-13.24.88c-.12,1.17,1.61-1.17,1.24.87-1.9.41-2-1.1-3.72-.87.18-1,2-.18,2.89-.44C421.17,279.69,420.93,279.73,420.67,279.76Zm230.72.87c1.24-1.29,3.05.55,3.72,1.32.34,1.67-2,.51-1.66,2.19-1.67-.49-3.13.1-3.72-2.19.86.25,1.34.92,2.07,1.31C653,282.66,652.46,281.08,651.39,280.63ZM221.8,283.7c1.21,1,2.17,1.51,3.31.44-.58,1.77.89,1.38.82,2.63-1.18.62-2.25-1.36-2.06.44C221.59,286.81,222.08,285.65,221.8,283.7Zm428.35.44c1.08-.13,1.35.61,1.24,1.75h-1.24Zm-443.24,9.64c.69.58,2.63-.16,2.49,1.32C208.71,294.51,206.76,295.26,206.91,293.78Zm5,.44c.57.14.35,1.1.42,1.75a3.32,3.32,0,0,1-2.48.44c0-.42.5-.34.82-.44-.18-.39-.36-.78-.82-.87C210.34,293.72,211.78,296.05,211.87,294.22Zm10.76,12.71c-1.92-.16-2.35-1.9-4.14-2.19C219.47,304.17,222.92,304.71,222.63,306.93Zm-17.78-1.31c1.33.4,3-.46,2.89,2.19C206.65,306.4,204.65,307.64,204.85,305.62Zm443.23,11c-.93,1.34-2.6,3.79-4.14,3.06C643.93,317.14,646.65,317.55,648.08,316.58ZM233,320.52c.61.38,1.32.66,1.25,1.75-2.52-.24.39,1.94-3.32.88C231.28,322,232.88,322,233,320.52Zm33.49,5.26c-1.16,1.94-2.62.89-4.55.88.11.77.71,1,1.66.87-1,1.64-2,.29-4.14.44.47-.67,1.35-.91,1.25-2.19C260.47,329.31,262.5,324.22,266.45,325.78Zm38.87.88c-1.18,2.37,1.42,1.59,2.89,3.07-1.11,2.47-5.18,1.81-6.61,3.94-1.16-1,.23-1.73-1.24-3.5a2.65,2.65,0,0,1-2.07.44c-.73.1-1,.75-.83,1.75-2.25.48-2.88-.74-4.13-1.32.77-3.05,4.65-.46,5.37-3.07,1.53,1.1,2.38.5,4.55.44-1.74-.93-4.86-.4-6.2-1.75C298.84,324.74,303.09,326.28,305.32,326.66Zm.41,0c.45-.87,3.43-.75,2.89.87C307.11,327.82,307,326.58,305.73,326.66Zm-100.88,3.95a5.3,5.3,0,0,0,3.31,0C208.34,331.71,204.56,332.18,204.85,330.61Zm10.75,1.75a1.59,1.59,0,0,1,1.65,1.75c-1,.18-.9-.8-2.07-.44A2.17,2.17,0,0,0,215.6,332.36Zm89.72,1.75c1.11,1.45,4,.92,5.37.88a2.17,2.17,0,0,0-.41,1.31c-2.5.55-5.68-.89-5.79,1.32-.73-.4-.53-1.78-2.07-1.32C302.73,334.88,305.1,335.63,305.32,334.11Zm48.37,1.31c.26-.83,4.75-.64,5.38-.87C357.92,336.77,356.05,335.3,353.69,335.42ZM293.33,335c-.15.74.32.82.82.87-1.73,2.41-3.86-.9-6.2.44C289.06,334.52,290.51,335.31,293.33,335Zm9.5,2.63c.16,1,1.82.42,1.66,1.75-.94.28-2.49.87-3.3,0C301.31,338.34,303.14,339.11,302.83,337.62Zm112.05,2.19a2,2,0,0,1,.83,1.75c-1,.05-1.28.82-2.06,0C413.52,340.41,415.25,341.22,414.88,339.81Zm-86.41.87c.79.05.29,1.45,1.24,1.32.07.95-1.46.2-2.07.44C327.65,341.57,328.77,341.88,328.47,340.68Zm-39.28.88c-.57,1-2.88.17-4.13.44C285.6,340.86,287.57,341.14,289.19,341.56Zm34.73-.43c1.27-.32,1.22.75,2.49.43C326.31,343,323.72,342.57,323.92,341.13Zm181.51,3.06c0,2.25-1.81.12-2.48,1.32-.56-.14-.34-1.1-.41-1.75a1.49,1.49,0,0,1-2.07,0c-.23.75-.68,3.56-2.06,4.38.2-1.1,0-2.65,1.24-2.63-.44-2.68-2.32-1.49-4.14-2.19C499.42,342,501.83,342.84,505.43,344.19Zm-53.33-.87c-.71,1-3.16.16-4.55.44A4.64,4.64,0,0,1,452.1,343.32Zm61.6,0c.66.77,1.9.9,2.07,2.19C514.82,346.39,513.5,345,513.7,343.32Zm-.41,2.63c-1.3-.67-2.42-1.53-4.55-1.32C508.29,343.87,513.67,343.92,513.29,346Zm-36-1.32c1.16-.08,1,1.73,1.65,0,.56.14.35,1.1.42,1.75-1.28-.3-.8-.3-2.07,0ZM327.23,346c1.14-.43,1.21,2.45.83,2.19C326.67,348.59,327.41,346.77,327.23,346Zm173.24.43c.65,2.09,4.36.94,4.14,3.95a5.69,5.69,0,0,1-5-2.19C499.83,347.45,500.94,347.76,500.47,346.38Zm38.46.44c.06-.51.75-.37,1.23-.44-.15,2.87-1.61,1.73-3.3,1.32.7-1.32,1.51-.49,2.89-.44C539.74,346.83,539.24,346.92,538.93,346.82Zm-204.67,0c.77.95,3.26.05,2.9,2.19C336.14,348.34,334.34,348.49,334.26,346.82Zm172,.44c1-1.6,2.78,3.14.41,2.63C506.65,348.41,507.42,348,506.26,347.26Zm-110.8.88c1.74-.9,3.54-.06,6.19,0,.11,1.43-1.28,1.26-1.65,2.19C397.73,350.4,397.4,348.41,395.46,348.14Zm122,0c1.66,0,.89,3.86-.82,3.07C516.67,350,517.35,349.38,517.42,348.14Zm26.47,2.63c-.24,1.44-1.57.63-2.49.44C541.41,350,543.36,350.16,543.89,350.77ZM365.69,353c-1.73-.36-3.46.59-4.14,0C361.5,351.77,365.81,351.39,365.69,353Zm7,.44a18.11,18.11,0,0,1-5.38-.44C368.54,352,371.85,351.78,372.72,353.4ZM376,353c-.18,1-2,.18-2.9.44C373.5,351.73,374.79,353.08,376,353Zm6.2-.44c1,1.76-3.3.63-5,1.75C377.12,351.78,381.24,353.82,382.22,352.52Zm133.14,1.75c-1.46,2.5-4,.43-5.79.44C511,353.47,513,353.47,515.36,354.27Zm-11.17,0c-.05,1.27-1.61.49-3.31.88C500.87,353.94,503.83,353.64,504.19,354.27Zm45.48,2.2c-2.29,1.25-5.3-.5-7.44-.88C543.28,354.22,548.1,355.57,549.67,356.47Zm63.68-1.32c1.16-.06,1.19,1.08,1.24,2.19-1.26-.53-2.22.37-3.72-.43C611,355.61,612.81,356.05,613.35,355.15Zm-40.94,5.7c.75,1.18-1.82.84-.41,1.31,0,1-1.76.19-2.48.45C569.82,361.31,570.81,360.76,572.41,360.85Zm1.24,1.76a2.17,2.17,0,0,1,2.49,3.5c1.79-.08,6.4-3.23,6.61.44-1.64.16-2.52-1-3.31.43-.06,1.24,1,1.27,2.07,1.32-2,.48-6.59-.73-10.33-1.32-.3-1.18,1.94.32,1.65-.87-1.94-.62-7.68.43-10.75,1.31,1.47-3.65,10.3-.3,13.23-3.5C574.83,363.64,574.22,363.7,573.65,362.61ZM210.22,245.12c-.78.87-3.06,1.7-4.13.88C207.09,245.75,208.47,245.58,210.22,245.12ZM185,246.88c.38-.49.77-.14,2.07-.44.36,1.41-1.37.6-1.24,1.76-.47-.09-.23-.45,0-.44C185.64,247.37,185.47,247,185,246.88Zm5.37.44c1.35-1.4,2.92.68,4.56.44C193.48,248.58,191.71,247.16,190.37,247.32Zm17.37.44c1.89-.83,4.51,1.35,7,1.31-1.71,1.64,1.34,1.36-.41,2.63.94.71,3.57-.08,5.38.44-.07,1.09-1.41.13-1.66,0,.07,1.39,1.63,1.19,2.89,1.31-2.64,1-.38,1.09-1.65,3.07,1.76.91,3.61,1.73,5.38,2.64.61-1.16-.11-1.18,1.23-2.2-.64-.59-2.47-.88-1.23-2.19-1.67-.3-2.37.42-3.73.44-.76-.34.25-.47.83-.44s.23-.44,0-.44c5-1.59,8.35,1.75,13.23,2.19-.59-1.27-2.56-1.08-3.31-2.19,1.53-1,4.71.67,7,1.32a2,2,0,0,1-2.07.87c1.77.9,4.37.92,6.21,1.76-.17-2-3.15-1-3.31-3.07,1.93.19,4.54,1,5.79-.44.88.84,1.35,1.81,2.89.88.42,1.31-.92.77-1.65.87,1.5,1,3.26-1.49,5.37-1.31,1.22,3.67,8.65.76,11.16,3.07,25.91,4.8,59.65,4.27,86.42,6.13-.65,1.11-1.83,1.12,0,1.76.16,1.05-1.89-.24-1.24,1.31a2.17,2.17,0,0,0,3.72-.88c3.4-.19,7.59.46,10.34-.43a14.83,14.83,0,0,0,0,4.82c-2.55,2-6.84.67-9.52-1.32-.05,1.24,1.17,1.1,1.66,1.76-.85,1.67-3.93.28-2.48-1.32-.4-.89-1.59-.94-2.9-.88-1.17.52-.75,2.72-2.89,2.2.86-1.58-2.09-2.3-3.31-3.07-.68.44-.45,1.86-.82,2.63-.45-.11-.29-.88-.83-.88-.73.93,0,1.27,0,2.63-.62-.69-2.14-1.52-2.07.44a2.23,2.23,0,0,0-1.65-.44c-.64-2.57.63-2.72,0-4.38-1,.24-.88,1.69-2.48,1.31v2.19c-.39-.27-1.53-1-1.25.44a3,3,0,0,0-2.89-.87c0-1.2.69-.89,0-1.76a2.56,2.56,0,0,1-2.07.44c-.36,1.84,1.38,1.47,2.07,2.19-.38,1.66-3-1.1-2.48.88-2.1-.88-.31-1.46,0-3.07-.13-.59-1-.36-1.65-.44a1.19,1.19,0,0,0,.82,1.32c-.06,1.09-1.4.13-1.65,0-.27.41.2,2.38-2.07,1.75,2,.61,7.38,2.49,7.45,0,2.86,2.75,8.72,2.19,12.81,1.32,1.11.7.62,1.38,0,2.19.55-.53.65-.18,1.24,0,.62-.19-.16-.56,0-1.32,2.82.18,4-.52,6.21,0,.42,1.48-1.29.68-2.07.88.7,1.77.4,1.88,1.24,3.51a2.57,2.57,0,0,0-2.07.44c1.78,2.74,6.33,2.91,9.51,2.19,0-.43-.51-.34-.82-.44.87-.51,4.47,2.51,4.55-1.31a2.26,2.26,0,0,0,1.65.43c-.64,2-2.34,2.79-4.14,3.51.35.2,4.43.63,4.14-1.32,1,1.52,2.66,0,4.13-.43,1.1,2.51,2.88-.94,4.55.43.34-1.24-.58-1.13-.41-2.19-1.44-.35-1.75.82-2.48,0,0-.81,1.39-.27,1.65-.87-.75-.81-2.5-.58-3.31-1.32.05-1.12,1.38-.87,2.48-.87,0-2-1-.57-1.65-1.32.4-1.76,3.44-.74,3.72-2.63,1-.22-1.16,2.17.82,1.75-.76,1.62-.52,1.58-.4,3.95.8,0,1.76,1,.4,2.19,2.62-.52,4,.39,5.38-1.31-1.23-.89-3.27-.92-5-1.32.29-.35.64-1.2,0-1.31,1.07-.24,5-.4,5.79-2.2,0-.84-1.54.68-2.07-.44,1-.68,2.69-.65,4.14-.87-.55,1.42-2.81,1.5-1.66,3.51a12.5,12.5,0,0,0,3.72-2.2c-.12-.59-1-.36-1.65-.44,1-2.39,1.84,0,3.72-.87-.25-1.79-.58-3.48-1.66-4.39,2.09-.38,2.32-.11,4.56,0,.36,1.42-1.35.62-1.66,1.32.29.87,1.1,1.17,2.07,1.31.36,1.41-1.37.61-1.24,1.76.62,1.31,1.85-.33,1.65-1.32-.28,1.61,1.48,1.38,3.72,1.32-.19,3.15-5-.51-5,2.19,2.92.18,4.4,1,6.2,1.32-.88,2.44-3.36.5-3.72,3.5-.92-.19-2.24-1-2.48.44.57,1,4.5,1,5,0,2.17,1,5.58,1.81,6.2-.88-1.28-.12-4.11,0-4.13-2.63,1.19.09,2.1-.11,2.48-.88,1.6,1.41,2.17,2.43,4.55,2.2-.27,1.6.89,1.68.82,3.07h2.9c.13,1-1.2.48-1.24,1.31.63.94,2.28.79,2.48,2.19.76-1,.13-1.76-.83-2.63.05-1,1.76-.18,2.49-.44-.57,1.76-.13,1.16,1.23.88-.17.85-1.6.35-1.23,1.75,1.49,1.39,3.63,3.1,5,.88-.28-1.31-.89.42-1.66,0,.16-2.61,1.47-4,4.55-3.51-.33.87-1.45,1.58-2.07.88a3.06,3.06,0,0,0-.82,1.32c1.33,1.44,2.81.37,2.47,2.19a6.2,6.2,0,0,1,4.55,1.75c2.21-.2-1.64-2.35.83-2.63-.3-1-2.36-.13-2.07-1.75,2,.48,1.75-1.37,3.72-.88a2.12,2.12,0,0,0-.41,1.32c.63-2.55,5.35-.77,6.21-3.07,1.09.58,3.17.14,3.71,1.31.72-.4.92-1.37.83-2.63h2.07c.28,1.18-.86.85-1.24,1.32,1,1.43,2.79-.54,3.72,1.31.76-.06.25-1.48.83-1.75.56,0,2.64,1.44,2.47-.88a7.81,7.81,0,0,0,4.55-.43c.19,2.23-2.56,1.36-2.06,3.94.82-1.68,1.53-1.2,2.48,0,.3-.39.66-2.45-.42-2.19a2.12,2.12,0,0,0,.42-1.32c1.43.35,1.59-.65,2.89-.43.52,2.14-2,1.06-2.06,2.62.79.81,2.24-1.89,3.3,0,.69-.44.45-1.86.83-2.62a49.87,49.87,0,0,0,9.51-.88c-2-1.65-5.66,1-7.44-.44-.67-1.73,1.78-.15,1.65-1.31-1.07-.13-1.32-1.61-.41-3.08.64.19.35,1.38,1.65.88,1.06,0,.67-1.63,1.24-2.19-1.84.31-3.13-.11-5,.88,1.22,1.1.27,1.46,0,3.06-1.54.47-1.34-.92-2.07-1.31-.93.25.51.68-.41,1.31.06.52.75.37,1.24.45.12,1.15-.57,1.43-1.65,1.31.78-1.47-2-1.6,0-1.76-.72-1.75-3.49,1.73-1.24,1.76a17.58,17.58,0,0,1-5.79,0c.09-.63,1.23-.16,1.24-.88-.69-1.45-4.24.11-4.55-1.75-1.75.55,0,1.79,0,3.07-.59.23-1-1.71-1.24-.44.53-1.23-.57-.85-1.24-2.63,1.19.63,1.92-1.21.41-.88-.17-1.08,4.15-.29,1.66-1.75.05-1,1.75-.19,2.47-.44a1.19,1.19,0,0,0-.82-1.32c.47,0,3.21-1.45,4.54-.43,0,.83-1.36.3-1.23,1.31,2.86-.81,6.12-4,8.27-.44,2.17-.31,1.61-1.4,3.72-2.19.3,1.2-.83.88-.83,1.75.6,1,2.46-.27,3.31-.43-.27-1.32-.88.42-1.66,0-.51-1.42,1.34-.34.83-1.76,8.09-1,14.21,1.78,18.61-1.75,2.23.85,8,.9,12-.44.78,0,.28,1.45,1.24,1.32.11,1.72-2.91.12-3.31,1.31,1.31.77,3.51.26,5.79,0-.47-.53-1.19-.79-.83-2.19.76.62,2.92.19,2.07-.44.47-.61,1.8,1.57,1.66,3.07a53.47,53.47,0,0,1,10.33-.88c.41-1.32-.92-.78-1.65-.87.82-1.56,1.95-.2,2.48.87,2.25-.38,3.77-1.54,6.2-1.75-1.45-1.28.06-1.82.83-.44-1-3.67-3,.23-5-1.75,1.58-1.35,4.06,0,7-.44-2.64-1.12.7-.86,2.48-.88-.06.52-.75.37-1.24.44,3.27,1.49,4,1.81-.82,1.32,1.28,1.12,3.88.85,6.2.87-3.2-1.49,2.71-.4,3.72-1.31a2.11,2.11,0,0,1,.41,1.31c1.24-1.39,1.87.19,3.31,0,.58-.15,0-.77-.41-.87.65-1.4,2.48.54,1.24,1.31,1.06-1.88,9-1,9.92,0,3.34-1.37,6.5-.49,10.34-.88-1.44-2-6.3-.34-9.1-.87-.78-1.41.1-1.58.41-3.51a2.19,2.19,0,0,1,.83,2.19c1.8.39,1.84.1,3.31.44.88-.66-.3-1.07.41-2.19-1-.58-1.29,1.73-1.65.44.13-2.09,2.36-.26,2.48.44-.61-.85,3.41-2.06,4.55-1.32,1.4.91-.1.36,1.23.44,2.33.13,4.25,1.37,6.21.88,1.59,1.16-2,.49-1.25,2.19a4,4,0,0,0-3.71.44c5.44.1,8.58,1.53,16.12-.44a17.6,17.6,0,0,0,7,1.31c-.18-.39-.36-.78-.82-.87,3.74.23,12.55,2.69,15.71,2.19,1,0-.15,1.2-.83.87,11.16,2.42,18.88,4,30.6,6.58.07-1-.34-1.4-1.24-1.32.41-1.23,1.75.13,2.47,0s0-.77-.41-.87c7.92,1.41,22.65-.34,28.53,3.5-.21,2-3.17,3.35-2.89,4.39-.7.71-2.67-.95-4.55-.44.69-.42,1.29-1.45,0-1.75-3,2.32-1.72,7.84.41,9.64,1,.17-.23-2,1.24-1.32-.26-1.65-1.72.48-1.65-1.75,3.22-1.26,5.65,1.43,8.27,2.19-.58,1.14-2.56.79-2.07,3.07-2.54.52-4,2.15-6.2,3.07-.36-1.4,1.07-.91,1.24-1.75a4.46,4.46,0,0,0-2.89,2.63c0,1.12,1.53.7,2.06,1.31-.37,1.06-1.66,1.16-2.89,1.32.94,1.22-.42,2.16.41,3.51-1.32-.38-1.27.68-2.07.87.79.77-.71,1.53,1.25,1.32-.72,2.05-1.54-.21-2.9,0-.07,1.81,1.4,1.3,1.65,1.75-.65,2.51-3.37,2.85-5.37,3.95.83.48,1.53.19,2.9.87-.13,1.33-1.6,1.24-1.66,2.63.77,1.07,3,0,3.72-.44,1-.17-.23,2,1.24,1.32-.12,1.33-2.19.6-2.48,1.75.53,2.09,2.81.91,4.55.88-1.57.65-1.56,2.29-1.65,3.5a2.65,2.65,0,0,0-2.07.44,8.29,8.29,0,0,1-4.55,6.58c.25,1.64,1.48,2.23,1.65,3.95,1.64-.14-.46-1.53,1.25-1.32,0,.69-.2,1.67.41,1.75-.06.81-1.4.27-1.66.88.24,1.36,2,1.15,2.07,2.63-2.35-.14-4.19-.82-4.55-3.07-4-.26-3.91,3.74-7.44,3.94-.13,2.44,4.47.83,2.89,3.51-.87-.39-1.22-1.33-2.48-1.31-.51,1.42,1.34.33.83,1.75-4.55-.67-6.4,3.09-10.33,2.63q-.12,1.44,1.23,1.32c-.94,1.71-1.89-.62-3.72-.44-.33.08-.41.44-.82.44.24,1.2,1,1.82,1.24,3.06-2,1.28-2.44-2.23-5-1.75,1.66.44,2,2.27,3.3,3.07-.54,1.46-2.48,1.46-3.3,2.63,1.72,1.6-.4,2.38.41,4.38-1.36.76-3.79.37-3.31,3.07-1.7.35-2.12-.67-3.72-.44-.3,1.34.71,1.29.41,2.64-2.79,2.39-6.27,1.47-10.33,2.18a1.78,1.78,0,0,0,1.65.88c-6.06-.2-10.58,2.19-15.71-.43,3.16,1.09,5.52-.94,8.68,0,.43-.44.84-.87,1.24-1.32-2.33-.62-5.56-.16-7.85,0-1.51-2.73-6.81-.94-8.27.44,0-2.21-2.43-1.81-3.72-2.63,2.32-1.51,6-1.64,8.26-1.32-3.08-1.31-10.3-2.79-12.4,0-1-.54-1.2-2.17-.83-3.51-2.17-1.91-10.09-2-13.22-2.19-2.2-2.38-3.22-1.37-5.38-3.94-1.74,1.14-1.74-.7-3.31-.88.15-.57.73-.69.82-1.31-.57-1.45-4-2.11-5-1.76-.93-.18.07-2.4-1.23-2.19-.5-.13-1.43,1.26-.42,1.32-.54.83-2.48-.56-2.47-1.76-7.17-2.57-12.13-1.66-19.44-1.31-.2-1.38,1-1.24,1.65-1.76,1.71,1.86,3.87-.75,6.21.44-4.18-3.47-11.26-.23-19.85-1.31.37-.78,1.68-.56,1.24-2.2-.56,2.17-4.85,1.78-3.31,4.83-1.39.45-.64-1.37-.82-2.19-1.54-.47-.66,1.64-2.07,1.31.08-.35.42-.44.41-.88-2.8-.28-8-1.41-9.51,2.19-1.8-.68.64-3.53-1.65-2.19.53-1.13.86-1.37,2.07-.87,1-.32-1.37-1.32,0-2.2-2-1.76-3.61.48-4.55,2.2,0-1.32-2.57-2.09-2.9-.44.36,1.29.62-1,1.66-.44.78.77-.5,1.28.41,2.19,1.54.47.66-1.64,2.07-1.31.49,1.15-2,1.13,0,1.31.29,1.18-.86.85-1.24,1.32,2.47,1.43-.41,3.41,1.24,5.26-2.09-.81-3.25-.88-4.55-3.07-1.82.92-3.42-.67-5-1.31-.73.39-.76,1.53-1.24,2.19-1.62-1.15-1.75,1.1-3.73,0-.18,1.55-1.74,1.66-1.65,3.5-.5-1.46-2.07-2.61-5.37-2.19.42.57.4,1.62.82,2.19.71.1,1.08-.75,1.24,0,1,.18-.23-2,1.24-1.31-.32,1.65.51,2.09.42,3.5-1-.17-.9.8-2.07.44-.44-2.62-2.34-1-3.72-2.63.36-.64.62-1.39,1.65-1.31,0-1.13-1.92-.63-.82-1.75-3.67-.22-6.39-.63-8.68.43.15-.74-.33-.83-.83-.87,1.62-1,6.12-1,7-1.32,0-1.36-1.24-1.31-2.47-1.32,0-1.19.68-.88,0-1.75-1.09-.13-.33,1.7-1.66,1.32v-1.32c-.58,1.88-3.28-.48-3.31,1.32-3.83-.74-5.07-7-9.5-4.39-.11,1.49,2.25,1.51.82,3.07-.85-.12-.82-1.17-1.24-1.75-.42.28-.43,1-1.24.88-.12-.71.39-.76.41-1.32-.86-.19-1.09.3-1.65.44.52.59,1.24.86.41,1.75-.76-.06-.25-1.48-.83-1.75-.85,1.87-2.75,2.63-5.37,2.63-.2-1.53,1-1.53,1.65-2.19-.68-.34-1.15-.28,0-1.32-4.28-2-4.41,1.86-7.85,2.63.35-2.46,1.21-.79,2.06-1.31-.94-2.24-2.35.45-4.13,0,.93-1,0-2.2-.41-3.07-.87.39-2.47,0-2.07,1.75-4-1.85-6.76,1.06-5.37,3.95,1.72-.47,1.82-.11,3.72,0a10.2,10.2,0,0,1-5,1.31,1.24,1.24,0,0,1,0-1.75c-1,.77-2.53-1.28-4.14,0,2.14-1.06-1-1.61,0-2.63-4.12,0-5.15,3.3-5.79,7-1.51,1-5.44-.51-5.79,1.76-1.63-1.75-7-.78-10.75-1.32-2.72-.39-2.73-.06.83-.87a1.2,1.2,0,0,0,.83-1.32c.77,1.4.58,1.11,2.48,1.32-1.59-1.51-.12-.49.42-1.76-.1-.56-1.24-.57-1.25,0-1.57-.75.9-.72.83-1.32-1.29-.23-1.22-1.92-2.07-2.62-1.09.08-2.28,4-.82,3.94-2,.63-4.37,1.65-5.38,3.95,1.36.57,4.62,1.43,6.2,3.06.47-.38-.25-1.22,1.65-.87-1.12.63-.47,1.1,0,2.19.35-.37,3.24-1.2,2.9.44-1.89-1.24-3,1.27-3.72.87s0-.17.41,0c-2.79-2.33-5.78-.25-9.09-1.75-.88.49,1.23,1.74-.42,2.19a4.59,4.59,0,0,1,0-2.63c-3.42.5-3.58,3.19-6.61,2.19.49-.57.16-.69,0-1.31-1.36-.19-3.45.59-5-.88-1,.12,0,1.64.42,1.76-2.47-.6-8.23.9-11.16-1.76-.11,1.54-2.87.31-4.55.44.06-1.25,1.72-.8,2.89-.88-.69-.41-1.45-1.61.42-1.31A4.18,4.18,0,0,0,357,346c.24-.41,1.15-.67.42-.88.26-.75.94-.27.82.44.4-.75,1.3-1,2.07-1.32-.62-.65-1.82-.7-2.89-.87-.4-1.59,1.78-.45,2.06-1.32-.13-.75-1.43.57-1.24-1.32,2.61-.29,3.29-2.65,5.79-3.06-1.07-1.4.94-1.11,2.48-1.76.71-.56.83-1.74,1.65-2.19-.75-.81-2.49-.57-3.3-1.31,1.66-1.62,5,.39,6.61-1.75-2.32-1.73-2.78-5.72,1.25-7a14.85,14.85,0,0,1-2.07,2.19c1.4,1.68,4.88-1.51,4.54,1.75a2.61,2.61,0,0,0,2.07-.43,8.39,8.39,0,0,0-2.89-2.19c.86-.84,1.74-.11,2.48,0,1,.21-1.16-2.18.83-1.76a3.06,3.06,0,0,0-1.25-.88c-.42.43-.84.87-1.24,1.32-.84,0,1.21-2.24-.41-.88-1.49-2,4.93-1.31,5.37-1.31-.06.51-.75.37-1.24.44.92.34,1.11,1.45,2.49,1.31-.88,1.81-1.55-.54-2.49.44,2.16,3.85,5-.3,7.86.44,0-1.64-1.62-1.5-2.9-1.76.58-.26.06-1.68.83-1.75s.79.62.83,1.32c1.32.37,1.28-.7,2.07-.88,0-1.8-2.82-2.28-3.73-1.75-.55.3.37,1.33-.82,1.75-.3-.41,0-1.76-2.07-1.32-.05.79.51.93.42,1.76-1-.67-1.47-2-3.31-1.76-.07-1.23,1.24-1,1.24-2.19a1.9,1.9,0,0,0-2.48,2.63c-1.6.95-3.21,0-3.73,2.63-.33-.3-1.12-.68-1.23,0-1.28-.43.47-1.17.41-1.75-.58-1-2.69,0-2.48,1.31-1,0-1.22-.75-2.48-.43v-1.32c-1.24-.1-1.41,1.62-2.48.44-.85.12-.39,1.63-1.24,1.75-.17,1.05,1.88-.24,1.24,1.32-2.76-1.23-2.3,2.5-3.72,1.31.37.39.64,3.05,1.24,1.76.7,1.88-1.82,1.49-4.14,1.75.17,1.14,1.23,1.32,1.24,2.63-1.56.53-2.47.45-1.65,2.63-1.06,0-.67-1.63-1.24-2.19-2.86.22-2.55,1.16-5,.44-.34.08-.42.44-.83.43.21,3.65,2.7,2.15,4.55,3.95-.91.65-2.6.46-3.31,1.32-.61-1.68-2.89-.89-4.14-.88-.62.38.12.66-.41,1.75-1.6-.48-1.47,1.55-2.48.44-.23.42.64,2.12-.41,3.51,1.66.3,1-1.85,2.48-1.75v1.31c2.76-.65,2.83-.92,3.72-2.19a1.79,1.79,0,0,0-1.66-.88c-.92.07.54,1.11,0,2.19-1.07-.17-1.15-1.41-2.89-.88.32-1.55,3.09-.51,2.89-2.62,1.15.22,3.47,1.95,4.14,0,1.35,1.27.13,2.55,2.9,2.19a4.59,4.59,0,0,1-2.49,2.19c.51,1.33,1.43-.48,2.49,0-.08,2.86-5-.92-3.72,2.19-2.49-.5-6.34-2.33-8.69-.44-1-2.1-4.16-.72-5.79-1.31-.37,1.85,2.33.44,2.07,2.19-2.9-.83-6.3-1.07-7.86-2.19.38-.77,1.52-.73,1.65-1.75-1.62.5-2.52-1.55-4.54,0,.32-2.77-.58-1.52-1.66-2.64-.25-1,.53-3.18-.41-3.5-.52.11-.41.87,0,.87-1.36,1.12-2,.41-4.14.88-.75-1.26-.66-1.37-.41-3.07.41,0,.32.54.41.88a3.27,3.27,0,0,0,2.49.87c.06-1.23-1-1.26-2.07-1.31,2.45-1.3,4.35.7,7.86.44A62.16,62.16,0,0,1,326,331c-.78,0,.25,1.71.83,1.75-.69.85-2.24-1.11-2.48-2.18-1.32-.27-1.28.82-2.07,0-.51,1.41,1.34.33.82,1.75-.83-.77-.81.32-1.65-.44a1.19,1.19,0,0,0,.83,1.31,4.43,4.43,0,0,0-1.65,3.07c-2.45.2-1.27-1.19-2.49-1.75,0-.45,1.79-.89.42-1.32.53-1.37.85-.22,2.07-.87.19-.86-1.9-1.41-2.07-.44-1-.28-.22-2.22.82-1.75-1.16-2.8-2.15,1.9-3.3.44a8,8,0,0,0,1.65-4.83c1.59,1.85,5.31-1,6.2,1.75h-1.65c.3.37,2.41,1.66.41,1.76.83,1.37,3,.35,3.73.88.39-.76,1.37-.89,1.65-1.76.81,1.53,3.5.65,4.13,1.32-.81-2.06-3.75-1.87-6.2-2.2.4-2,2.41.42,3.31-.87,0-.67-1.13-1.44-.83,0-1,.13-.46-1.27-1.24-1.32.18-1,2-.18,2.9-.43a3.59,3.59,0,0,0-2.9-.88c-1.2.38-.46.65-.41,1.75-7.17-1.3-12.16-1.18-21.5-1.31-.69-.88,0-.56,0-1.76a7.23,7.23,0,0,0-1.24,1.76c-5.46-1.09-12.16,2-14.89-1.76-1,1.35-.24.18-1.65,0-.65.78-1,1.86-1.65,2.63.12.6,1,.37,1.65.44-1.36,1.54-4.29.39-5.79-.44-.66.71-.16,1.39,0,2.19,1,.18.9-.8,2.07-.43-.94,1.86-4,.4-7,1.31,1.22,2.43,4.6,1.59,6.61.44v1.32a2.65,2.65,0,0,0,2.07-.44c-.16-1.17-1.78-2.5.42-2.63-.27.44-.95.45-.83,1.31,1.19-.75,3.4-1.34,2.48.88.42-2.32,5.25,0,4.55-3.51,1.61-.35,2.14-.45,3.3.44-1.44,1.75-4.19,1.93-2.48,4.82h-2.06c-.07,1.25,1.4.86.82,2.63a7.46,7.46,0,0,0-3.31.44c.13-.89,1.12-.86,1.25-1.75-2.73.55-2.34-2.2-5.38-1.32,1.06.85.09,1.45,0,3.51h-2.07c-.06.95,1.47.2,2.07.44.48-.78,1.43-2,2.48-.88-.12.59-1,.37-1.65.44,1.46.8,0,1.09-.42,2.19,1,2,2.67.7,2.9,3.07-2-.33-2.84.49-4.55.44-.18,1.21,1.54.41,1.65,1.31-2.76,3-8.31-1.65-12.81.44.15-.74-.33-.83-.83-.87,3.19-.72,7.55.3,11.16-.45-3-1.67-7.36.23-10.75-2.19.38-1.66,1.66-.32,2.9-.43.13-1.75-.79-2.38-2.48-2.2-.25-.79,4.59,0,3.3-2.19-2.41,2-4.33.59-8.68.88,1.85.73,5.73,1.42.83,1.31.32,1.38,3.17.53.41,1.76,1.09.9,3.6.28,3.31,2.63-3.09-.44-5.33,3.65-10.33,2.63-.25-2.21-2.47-2.16-4.14-1.75,1.81-1.62-.54-1-1.65-1.76.11-.9,1.1-.88,1.65-1.31-1.13-1-2.54,1.38-3.72,1.75.18,1,2,.18,2.89.44a2,2,0,0,1-.82,1.75c-.81-1.8-4.44-.64-5.79-.44.07-.51.75-.37,1.24-.43-.1-1.36-3.41.68-2.9-1.32a3.54,3.54,0,0,0,3.72-1.32c-.27-.74-.94-.27-.82.44-1-.13-.77-1.52-2.07-1.31-1.41.46,1.15.13.41,1.31-6.51-3.58-18.19-1.34-26.87-3.51,3.73-1.78,9.27,0,13.23,0,.66-1.72-1.79-.15-1.65-1.31.68-1.77,2.88-.22,1.24-2.63,1.16-.36,1.07.62,2.06.44-.1.47-.82.3-.82.87-.13.78,2.31.79,1.65-.43.39.25.62,1.22.83.43,1.24.29-.4.94,0,1.76s1.76.47,2.48.87c-.06-.95-1-.94-2.07-.87,2.72-.49-.2-1.83,1.65-2.63-1-1.16-3.05-1.14-3.3-3.07-.5.49-.75,1.25-2.07.88,3.34,1.76-.94-.59-.82,1.75-.46-.53-2.47-1.87-2.07.44-1.25-.69-1.44-1.51-2.48-2.19-.39.13-.39,1.18,0,1.31a62.29,62.29,0,0,1-9.1-.43c2.4-1.19,5.22-.41,8.27-1.32-1.48-1.32-.36-2.74-2.07-3.51-.85-.38-1.86,1.14-.83,1.32-1.75,1.11-3.1-2-5.37-1.76,1.21-1.11,3,.92,4.55.88a24,24,0,0,0-5.79-3.07c0-.42.5-.34.82-.44-1.95-1.49-3.82-.81-4.54-3.07.48.08.74-.09.82-.43a1.21,1.21,0,0,1,.83,1.31,5.81,5.81,0,0,1,6.21-.88c.19.09-.72.64-.83.44.85,1.53,6.34.93,6.2,4.39,1.8.55,1.83.12,3.31-.44.16,1.05-.76,1-.42,2.19-1.42-.83-2.61-1.91-5-1.75,1.68,1.42,4.4,1.77,6.2,3.06-1.36.45-1.69,0-1.24,2.64,2.82.5,3.67-1.09,5.38-1.76-1.12-.42-1.61-1.51-2.89-1.75.25-.39.49-.79,0-.88a1.78,1.78,0,0,1,1.65-.87c.07-1-.34-1.4-1.24-1.32,1-.19,1.54-.95,3.72-.88-.9-.86-2.05-.87-3.72-1.75-.37-1.51.24-1.91-1.66-2.19,0,.42.51.34.83.44.2,1.61-2.28-.19-1.24.87-.79.58-.48-3.1-3.31-2.63.59.84,1.57,1.26,1.65,2.63-.91-.33-1.86,1.78-.41,1.32-.78,1.11-1.45-.4-2.48.44,0-1.18,2.44-1.32.42-2.2.26-1.31.88.42,1.65,0-.27-.44-.95-.45-.83-1.31-1.54-.46-.81,1.48-1.65,1.75-.71-.23,1.78-3.36-.42-4.82-.9-.08-1.31.36-1.24,1.32-.56-.14-.34-1.1-.41-1.76-2.7,1.2.37,2.36,1.65,2.19.13,1-1.19.49-1.24,1.32-.74-1.4-2.39-1.86-3.72-2.63-.07,1,.34,1.39,1.25,1.31-1.34,1.25-2.64-1.27-4.14-1.31-.34-1.67.88-1.7,1.65-2.19-1.2-.7-1.83.32-2.89.88-.87-.39-1.23-1.34-2.48-1.32-.12-.71.39-.76.41-1.31-2.07.42-2.15-1.87-2.89-3.51a20.92,20.92,0,0,1,3.72,1.32c1.26-.82-1.83-.66-1.24-2.2,1.26-.31,1.51.45,2.48.44-.34-2.12-2.48-1.73-2.07-3.51-2.29-.49-3.75-1.86-5.38-3.06,1.63-.55,3.54,2.37,6.21,2.19.49-2.43-2.14-1.53-2.07-3.51,1.33,1.65,4.58,1.27,5,3.94-1-1.07-.78.66-2.07.44.51,1.37,4.06,1.81,2.89,3.51a15.83,15.83,0,0,1,2.48,1.32,4.65,4.65,0,0,1,2.07-3.07c-1.21-.09-2.89-.61-2.48-3.51a14,14,0,0,1-4.55-3.07,2.58,2.58,0,0,0,.41-1.75c.67.9,2.07,1,3.72.87.23,1-.79.63-.83,1.32.7,1,3.49,2.05,3.73-.44.49,1.82,3.24,1.24,3.72,3.07.49-.07.35-.8.41-1.31,1.18,1.05,2,1.78,2.07,3.06a2.61,2.61,0,0,1,2.07.44c2.4-1-2-2.34.83-2.19-.39-.77-1.3-1-2.49-.88.66-.53,1.89-2.36.42-2.63-.11,2-2.13.33-2.07,1.76-1.21.11-1.27-1-2.48-.88,1.13-1.46,1.94.3,3.3-.88a16.27,16.27,0,0,1-4.54-2.63c-1.12.4.34,1.62.82,1.76-.64.65-3.38-.19-3.3-1.76h1.24c-.37-.77-1.68-.56-1.24-2.19-2.23,1.42-3.52-.21-5,.88,1.77-2.26-1.11-3-1.66-5.26-1.34-.55-.31,1.42-1.65.87,0-1.7-2-1.35-2.07-3.07-.88-.2-.79.63-.83,1.32-1.23-.19-2.32-4.6-3.3-2.19-.78-.5-2-.52-1.66-2.19,1.67,1.17.72-.62,1.24-1.32,1.32.21,2.52.55,2.89,1.76-1.26.31-1.5-.45-2.47-.44,1.43,2.19,3.61,1.08,5.37,1.31-.87,1.15,1,2.22,2.48,2.19-.7-1.89-2.88-2.2-3.72-3.94,2.35.29,3.16,2.2,5,3.07.92-1.1-.87-1.33-.82-2.19,1.16-.37,1.07.62,2.07.43-.42-.47-3-2.24-2.9-.43-1-1.71-1.8-3.65-4.14-3.95,1.49,1.29-.32,2,.42,3.07-.26,1.07-2.13-1.32-.42-1.32-1.76-.46-2.22-2.32-3.72-3.06-1.38.13,1.77,1.52-.41,1.31-.33-2.72-3-3-5-3.95,3.8.21,9.52,2.18,12.4,4.83,1.66-1.75,4.3-.12,5.79.87-.07,1.09-1.4.13-1.66,0-1.1,2.82,2,4.08,2.9,6.14.48-.07.35-.8.42-1.32,2,3,3.58,1.58,6.61,2.63-.66-1.59-2.45-1.32-3.72-3.06.51-1.33,1.42.47,2.48,0-1.09-.61-1.43-2-2.9-2.19,1.57-.49,4.77,1.07,6.62,1.75a2.21,2.21,0,0,0,.83-2.19c-.74-.12-.85.41-.42.44-.27,1.31-.88-.43-1.65,0,.41-.59,1.11-.86,1.24-1.76-.94-.12-1.55.11-1.66.88-.2-1.52-.6-2-.41-3.94,2.2.15,3.71,1,5.79,1.31-.47.53-1.18.79-.82,2.19h-2.07c.79.57,1.35,2.4,0,2.63,2.69,2.76,8.78,1.71,10.75,3.07-.32-2.45-6.18-2.8-8.68-4.38,0-1.91,2.83-.26,1.65-1.76.92-1.23,2.55.49,2.07,2.19,1.66,2.21,2.18-.64,3.3.44-.24-1.64-.65-3.11-2.48-3.07,1.19-.94,3.69.46,4.14,1.76,1,0,1.21-.76,2.48-.44-2.7-2.35-5.52-1.93-8.27-3.94,1.22-1,2.89,1.3,5,.87a2.11,2.11,0,0,1-.41-1.31c-2.23.41-4.18-1.17-3.31-2.64-.13-.59-1-.36-1.65-.43-.09.9-.73,2.2-1.66.43-.25,1.08-1.4,2.91-1.65.45,1.82,1.25-.68-1.6,1.65-.88.17-.92-.29-1.16-.41-1.76-.23,1.21-.83,1.53-2.9,2.19a9.9,9.9,0,0,1-.82-2.63c-1.33.37-.86.38-1.66-.43-1,.14-1.78.45-2.06,1.31,0,1.13,1.54.7,2.06,1.32-1.52,1.47-1.41.73-3.72,1.31,1,1.23,3.29,1.19,2.9,3.95-1.68-.13-1.28-2.45-2.9-2.63-.6,1.55-2.82-.12-3.3-1.32,1,.14,1.54.69,2.89.44-.82-2.47-2.39-1.53-3.72-1.75-1.17.44.11,1.86,0,2.63-1.08-1.12-1.88-2.36-3.31-.88.34-1.24-.58-1.14-.41-2.19.42.46,2.94.9,3.3,0-.26,0-5.17-1.23-4.13.44-.13.92-1.44-.46-1.24-1.32,1-1,2,.07,3.3,0-1.28-1.55-4.22-1.37-5-3.51.84-.62,4.63,3.72,6.2.88,1.75,2.25,3.67,2.27,6.62,2.63-.3-1.58-2.1-1.57-3.72-1.75-.12-.71.39-.75.42-1.32-.49.08-.74-.09-.83-.44-1.47.05.88,1.45-.41,1.32-1-.11-2.64-3.29-3.32-.88-1.54.47-1.18-1.09-2.47-.87.34-1.29,1,.56,2.07,0a2.63,2.63,0,0,0-4.14-.44c-.17-2.46-3-2.11-4.14-3.51-.4,0-.32.54-.41.88-2.37-.34-3.57-4.35-5.79-2.19-.19-1.41-1.61-1.51-2.48-2.2-.79-1.24,3,1.93,2.89-.87,1,1.12,3.18,1,3.31,3.07.42-.29.43-1,1.24-.88.07-1-.34-1.39-1.24-1.32,1.62-.24,5.19,1.23,7.44,1.76-1.34,1.55,1.23,1.6,2.07,2.19,1-.39-.9-1.33-1.65-1.32,3.75-.41,8.36,2.7,13.23,1.32-1.72-3.77-6.58-1.52-9.51-3.95-1.24.29.39.94,0,1.76-1.36,0-1.58-1.25-3.31-.88-.08-1.68.34-.16,1.24-.44,0-1.71-2.24-1.13-3.31-1.75.63-.65,1.82-.71,2.9-.88-.5-1.95-.13-1.58,1.24-2.19-.06-.81-1.4-.27-1.65-.87-.85.12-.39,1.63-1.25,1.75-1.33.38-.85-1.14-1.65-1.31-.79,0,.26,1.7.83,1.75-.07,1.26-2.66,2.11-2.48,0,.66-.13.7.41,1.24.44-1-1.69-3.6-3.1-5.38-2.63-1.06-3.46-5.48-4.75-8.27-4,.44,1.94,1.87.54,2.9,1.31-1.09,2.27-2.7-.78-4.55-.43,2.28-1.49-.88-2.86-2.9-3.51.14-.58,2.27.63,2.49-.88-2.61-1.92,4.4,1,4.13-.88,0-.83,1.54.36,2.07.44-1.19.81-.93,1.1-1.24,2.2-1.3-.24-1.33-1.81-3.31-1.32,0,1.85,2.32,1.34,3.31,2.19.79-.17.32-1.7,1.65-1.31-.7,2.07.26,1.92,2.07,2.19.06-1.24-1.17-1.1-1.66-1.75,3.61-1.86,6.54,5.17,10.34,4.38.49.07.34.8.41,1.32.86-.24.1-2.08,1.25-.88.6-1.67-1.85-.09-1.25-1.76,1.27-.31,1.22.76,2.49.44-1.6-1.22-2.86-2.82-5-3.5.18-2.14-.94-2.06-.42-3.51C212,249.47,210.11,248.11,207.74,247.76ZM571.59,359.1c1.65-.15,4.11.56,4.14-1.32C574.47,358.35,572.4,358.06,571.59,359.1ZM450,335.42c.07,1.25-2.7-.53-2.07,1.32C449.33,337.43,451,336.58,450,335.42ZM283.82,325.34c-.63-3.14-3.68-3.69-6.62-4.38.53,1.48,2.67,1.26,4.14,1.75C280.4,324,281.93,325.65,283.82,325.34Zm-48.37.44c.64.11.28,1,0,1.32a2.91,2.91,0,0,0,2.06-2.63C236.12,324.16,236.16,325.37,235.45,325.78Zm7.85,4c1.54-.86,4.82.14,5-2.2-1.19.35-3.62-.19-2.07-1.31.11,2.06.89-1.31,2.48-.44.17-2.95-3.88-1.43-3.71-4.38.55-.14.78-.62,1.65-.44v1.75c.62-.07,1.52.16,1.65-.44-2.33-.88,1.55-1.32,2.07-.43,1-1.11.18-1.39,1.24-2.2-1.47-.38-2.13,1.13-2.48-.43,2.4.29,4.25-.28,6.2,0-.67-.14-1.12.59-.41.87,1.8-1.4,2.29-1.08,4.54-.44.92-.63-.51-1.07.42-1.31,1,.66,2,.13,1.24,1.75,1.8.13,1.84-1.3,3.31-.44,0,1.2.68.89,0,1.76.6-.24,2.13.51,2.06-.44-1-.56,1.79-.7,1.24-2.19-2.69.07-3.4-1.95-5.79-2.19.61-.24,2.15.51,2.07-.44-.93-.88-.66-1.28-1.65-2.63,1.63.56.84-1.44,2.48-.88-.77.78.18,1.28.41,2.19,1,.57,1.72-1.28,2.07,0-.84,1.28-2.48-.62-3.31.88,2.47-.28,1.85,2.72,4.14,2.63.79-1.57-.16-1.61-.42-3.07h1.24c-1.16,1.8.66,1.26,1.24,1.75-1,.78-.28.73-.82,1.76.5.05,1,.13.82.87.86-.25,2.72.55,2.9-.43-.23-1.07-2.11-.4-1.66-2.2.6.5,1,.48,1.24-.43-.73-.24-1.71-.23-2.06-.88a3.87,3.87,0,0,0,2.06-1.75,7.78,7.78,0,0,0-5.79-3.07c.74-.24,1.72-.23,2.07-.88-1.43.35-1.59-.65-2.89-.43-.52,2.73,2.23,2.9,4.13,3.06.3,1.19-1.95-.31-1.65.88.62.51,1.69.54,2.07,1.31-.11.62-.91.5-1.24.88-1.2-2.06-2.91-4.54-6.21-3.51-.83-1-3.14-.34-2.06-2.19-2.05,0-2.34,2.29-1.24,3.51.65-.34.62-1.39,1.65-1.32-.62.66-.74,1.85-1.65,2.2-.28-1.52-4.28-.74-2.9-2.63-1.83-.5-1.66,1.15-2.89,1.31,0-.56.53-.61.41-1.31-.5.66-4.27.1-3.31.87.65.05,1.44-.06,1.24.88-5.83-.6-7.4.17-14-.44a17.17,17.17,0,0,1,5-2.19c.4.45.82.88,1.24,1.31.33-2.37,2.54,0,3.72-1.31-.48-.08-.45-.69-.41-1.31-2-.9-4.77-.72-4.55-2.2,3,1,5.75,1.73,7.85,2.63-.32.1-.81,0-.82.44.82,0,.52,1.2,1.65.88v-2.19c-2.32-.37-1.67-1.68-2.06-3.51-1.47-.24-1,1.55-2.49,1.31a8.39,8.39,0,0,0-4.54-4.38c-.63,2.27,1.88,1.21,2.07,2.63-1.18-.07-1.73-.8-2.9-.88-.35,1.41-.36.91.41,1.76-1.85-1-3.55-.12-4.54-1.32,1.32.26,1.27-.82,2.06,0-.34-1.41-.35-.91.41-1.75-1-.68-2.7-3-3.72-2.19.49,1.09,1.45,1.68,1.25,3.5-2.71.16-2.13,2.76-2.07,3.95-1.29-.46.12-2.82-2.07-3.07a2.11,2.11,0,0,0,.42,1.31c-1.63-1.5-1.79-.67-2.07.88h-.83a3,3,0,0,0-.42-2.19c-1.34,0-2.22.56-2.47,1.75,2.56,1.09,1.79,5.69,5.79,5.26a2.32,2.32,0,0,0,0,2.2c3.18-.31,3.87,2.58,4.54,2.62.66,1.72-1.07.91-1.24,1.76a7.78,7.78,0,0,1,4.14,3.5c-1.17-.36-1.08.63-2.07.44,0-1.09.78-1.37-.41-1.75.33,1.24-.59,1.14-.42,2.19.94-.21,2.48,1.1,1.24,1.76-.65-.37-2.3-1.9-2.89-.88,1.94.54,1.44,1.33.83,3.07,1.54.81,3.81-1.2,5,0,.39-.82-1.24-1.47,0-1.76,1,.05,1.28.82,2.07,0,.39,2.45-.59,2,1.23,3.51-2.1.86-4.35-2.12-4.13-.88C242.91,328.1,242.88,329.14,243.3,329.73ZM233,315.26c-.11-.9-1.1-.87-1.65-1.31-.09,1.3,1.53,1.49.41,2.63,1-.18.9.8,2.07.43.09-.34,0-.86.42-.87a1.16,1.16,0,0,1,1.24.87c-.6-.48-1-.47-1.24.44,1-.2,2.34,1.55,2.89.44-1.09-1.07-2.48-3.64-4.14-3.5C233.38,314.39,233.48,315.15,233,315.26Zm11.58-25.42c1.26-.32,1.5.45,2.48.43.19-1.39-1.84-2.68-2.48-1.75C245.18,288.64,244.83,289.48,244.54,289.84Zm-36.8-34.19c.43-1.45,3.39,1.82,3.31-.44C209.75,254.51,207,254.07,207.74,255.65Zm18.19,2.19a3.42,3.42,0,0,0,2.49.44C228.46,257,226,256.47,225.93,257.84Zm23.16,1.32c.12-1.16-.58-1.45-1.66-1.32C247.31,259,248,259.28,249.09,259.16Zm-21.5.87c-.39-.37-1.34-2.32-2.07-.87C226.64,258.74,226.49,261.86,227.59,260Zm35.55,0h-2.47C260.24,261.89,263.08,261.3,263.14,260Zm-38.44,1.75c-.42-.48-2.26-1.64-2.9-.43C223.47,260.49,223.71,263.36,224.7,261.78Zm5.37,1.32h1.65a2.51,2.51,0,0,1,.42-1.75h-.83c-.25,0-.49.06-.42.43C232.41,262.48,229.22,261.68,230.07,263.1Zm24-.44c-.73-.39-1.05-1.22-2.48-.88C251,263.26,253.67,263.6,254.05,262.66Zm88.48,4.82a11.61,11.61,0,0,0,3.72,0c-.35-1.4.65-1.36.83-2.19C345,264.14,342.65,265.2,342.53,267.48ZM246.19,267c1.41,0,2.89.14,3.31-.87-1.38.41-2.61-1.58-3.31-.44C246.9,265.91,246.11,266.3,246.19,267Zm40.93-.87c-.12,1.56,4.19,1.18,4.14,0C289.11,266.24,288.7,265.49,287.12,266.17Zm10.34,2.19c3.9.27,7.22,2.29,9.51-.44C303.12,267.29,300.54,265.93,297.46,268.36Zm-5,.87c-.87-1.7-4.36-.64-5.79-1.75C287.12,269.68,290.47,268.76,292.5,269.23Zm67.4,2.2c.5-.59,0-2.54-.42-3.51h-2.89C356.94,269.89,358.39,270.69,359.9,271.43Zm-108.33,1.31c.28-1.36-2.37-1.82-2.9-.88A15.15,15.15,0,0,1,251.57,272.74Zm65.74,2.19s3.21-.72,5,.44c.19-1.37-1-1.56-1.65-.88.51-1.41-1.34-.33-.83-1.75.39.27,1.53,1,1.24-.44-2.27.79-4.1-2-5,0C318.45,272.6,316.35,274.23,317.31,274.93Zm148-1.31a2.17,2.17,0,0,0,.42,1.31h.83c-.42-1.32.92-.77,1.65-.87.12-1-.1-1.65-.83-1.76C468.11,274.26,467.24,273.13,465.32,273.62Zm-158.76-.44c-.24,2.17,4.42,1.43,5.37.88C310.51,273.27,308.36,272.28,306.56,273.18Zm166.21,0c-.09.34-.34.51-.83.44-.09-.34,0-.87-.41-.88C469.94,274.3,474.32,275.08,472.77,273.18Zm11.58.44c-.2,1.37,1.11,1.16,1.24,2.19-1.46.42-3.26.05-5,0-1,.58.75,1.32-.41,1.76-.3-1.38-1.82-3-3.3-1.76.09,1.51,1.67,1.43,2.06,2.63,4,.93,5.59-2.48,8.27-.87.86-.14-.61-1.19.83-1.32.49-.07,1.17.07,1.24-.44-1-.14-1.71-.86-2.48,0,.09-.83-.47-1-.42-1.75.79.82,1,.05,2.07,0,.23,1.22,1.7,1.12,1.66,2.63,1.46-1.07,13.05-.3,5.37-1.76,0-.44.34-.52.41-.87-6,.52-7.9-2.95-10.75,0-.16-.76.62-1.13,0-1.32C485.09,273.23,484.71,273.43,484.35,273.62Zm5.79,3.95c3.1-.24.49,1.34,4.13,1.31.22-2,2.23-.51,3.31-2.19C494.35,277.06,491.81,276.22,490.14,277.57Zm-227-3.08a10.53,10.53,0,0,0-5.37-.87C258.48,275.74,261.7,274.83,263.14,274.49Zm184.41.88c1.4-1.51,3.4.32,4.55-1.31-1.69-.47-2.05-.07-4.14-.44C448.05,274.45,447.5,274.58,447.55,275.37Zm53.33-.88c-1.1.44-3.45-1-2.47,0C499.47,274.71,500.75,277,500.88,274.49Zm-31,4.83c-.73-1.56.27-1.08.41-2.63-.94-.12-1.55.1-1.65.88C469.49,277.68,468.74,279.51,469.88,279.32Zm-2.49-3.07c.61-.24,2.14.51,2.07-.44a25,25,0,0,0-8.27.44c.4,1.36,2.49,3.5,3.31,1.75a2.62,2.62,0,0,1-.41,1.76c1.8,0,2.26-.64,3.72,0-1-1.9.78-.55.83-2.19C468.25,277.1,467.11,277.43,467.39,276.25Zm3.72,0c1.83.46,3.2-.87,4.14,0C475.37,274.68,471.06,275.07,471.11,276.25ZM336.74,278a2,2,0,0,0,2.07-.88c-1-.56-.77.06-2.07-.43Zm-38.45.44c-1.13.27-3.29-.56-3.72.44C296.42,278.86,297.37,280,298.29,278.44Zm-50.86,1.32c1.51-.29,1.59.94,2.9.87C250.8,278.11,248.31,279.07,247.43,279.76Zm69.47,0c-.52,1.45,2.79,1.07,2.89.44C318.75,279.56,318.17,279.13,316.9,279.76Zm8.26,1.75c1-.73,3.53.23,3.31-1.75-1.26.32-1.22-.76-2.48-.44C326.3,280.66,324.86,280.16,325.16,281.51Zm3.72-1.75c2,2.48,5.84,1.36,8.28.87A26.79,26.79,0,0,0,328.88,279.76Zm10.76.87a51,51,0,0,0,6.2.88C345.91,279.41,340.47,278.89,339.64,280.63Zm40.1,0c-.42,0-.49-.35-.83-.43a2.13,2.13,0,0,1-.41,1.31c1,.91,2.17-.62,2.48-1.75C380.17,279.62,380.16,280.35,379.74,280.63ZM247,284.58h1.65c.4-.82-1.23-1.47,0-1.76.26.61,1.6.07,1.66.88s-1.15.25-1.24.88c1.22.39,3.14,1.31,3.72,0-2.34-1.62-4.37-3.55-7.85-3.95C245,282.78,248.6,282,247,284.58ZM381,282c1.06.39,2.35.71,2.89-.44-.82,0-.52-1.2-1.65-.88C382.87,282.19,380.82,280.89,381,282Zm82.69-.88c-.16,1.14-1.23,1.32-1.24,2.63,1.4-1.15,3.2-1.87,4.55-3.07C465.32,280.38,465.09,281.77,463.67,281.07Zm18.61-.44c.2,1.1-1.89-1.05-2.07.44C480.85,282,483.48,282.17,482.28,280.63ZM256.94,285c-.32.93-1,2.44-.41,3.06-1-.06-2-.08-2.07.88,2-.13,3.34-.37,4.55-2.19-2.41.07-1.14-3.76-3.72-3.51C254.85,284.89,256.68,284.12,256.94,285Zm139.75-1.32V285a1.68,1.68,0,0,0,2.07-1.76A2.57,2.57,0,0,0,396.69,283.7Zm-124,1.32c-.61-.54-1.72-2.07-2.06-.44C271.05,285.49,273.48,285.35,272.65,285Zm172.83,1.31h1.24c.11-1-.1-1.65-.83-1.75C445.76,285.17,445.31,285.42,445.48,286.33ZM423.15,289c1.48-.26,3.16-2.17,1.65-3.07C424.57,287.25,422.59,286.76,423.15,289Zm-48.37,1.31c1.21-2.09,2.61,1.15,3.31-.87-2.34.29-1.44-2.86-3.31-3.07C375.75,289,374.56,288.73,374.78,290.27Zm4.55-2.19c1.05-.05,2.13-.08,2.07-1.31C380.21,286.68,379.14,286.71,379.33,288.08Zm-147.61,3.07c1.28-1.17,1.61,1.19,2.49,0-.45,0-.33-.56.41-.44.07-1.09-.64-1.37-1.24-1.75C233.74,290.41,230.86,290.63,231.72,291.15Zm16.13-.44c1.26-.31,1.5.45,2.48.44,0-1.58-.83-2.34-2.48-2.19Zm15.71,3.51c-.66-1.9-4.32-.2-3.72-3.51-.62-.23-1-.64-1.66-.87-.53,1.09.92,2.13,0,2.19a17.69,17.69,0,0,1-5.79-1.76c.07,3.27,6.84,1.24,5,3.07a8.75,8.75,0,0,0,2.48-.87C260,294.91,262.56,293.46,263.56,294.22Zm68.63-1.75c-1.54.46-1.17-1.09-2.48-.88a3.14,3.14,0,0,1-.83,1.32,2.51,2.51,0,0,0-2.06-.44c.18-.84,1.18-.8.82-2.2-1.11.28-3.28-.55-3.72.44a2.39,2.39,0,0,1,2.49,2.2C329,293.49,330.41,292.72,332.19,292.47Zm-97.16,0c1.54.84,1.53,3.34,4.14,3.06.3-1.78-2.68-.08-2.07-2.19,1.16-.36,1.07.62,2.07.44C238.69,292,236.06,290.36,235,292.47Zm29.36,2.63c1.16-.36,1.07.61,2.06.43-.87-1.3-1.58-1.38,0-2.62-.8-.18-.32-1.7-1.65-1.32C264.5,293.57,264.93,293.78,264.39,295.1Zm-40.93-2.63c.65.73-.32,1.77,1.65,1.75.16-.75-.62-1.12,0-1.31,2.15.06,1.53,3,3.31,3.5v-2.63c-1.49-.63-4.14-2.32-5.79-1.31Zm123.62,2.63H350c0-1.55.76,0,1.24-1.32.08.51.66.48,1.25.44-1-1.94-3.4-.7-4.14-2.19-1,.59-.26.88-.83,1.31-.45-.17-1-.52-.41,0C350,294.39,347.09,294.55,347.08,295.1Zm24.39-2.63a3.79,3.79,0,0,0-1.65,1.75c2.9-1.68,4.9,1.63,6.61-.88-1-.21-1.38-1.16-2.48-1.31C373.55,294,372.92,292.68,371.47,292.47Zm5.38,1.75c1.41.15,4.46-.2,3.3-1.31C379.76,294.09,376.73,292.49,376.85,294.22Zm-14.06.44c-.12-.86.56-.87.83-1.32h-2.48C361,294.5,362,294.48,362.79,294.66Zm25.22,0c.1-.63.68-.74.83-1.32-2-.33-2.27,1.11-3.31,1.76.77,0,.87.34.41.87,2.89-.1,5.28,2.35,8.27-.44-1.15-1.17-2,.42-3.31.44C390.59,294.85,389.59,294.45,388,294.66Zm3.72-.88c-.28-.34-2.31-1-2.48,0C389.53,294.12,391.56,294.76,391.73,293.78Zm-146.36,1.75c.9.39,3.12,1.63,4.13.44-1.86-.22-1.9-2.37-4.13-2.19Zm73.18,0c-.79-.18-.75-1.25-2.07-.87C316.19,295.75,318.25,296.52,318.55,295.53Zm-89.72,1.32c1,.25,2.59,2.19,3.72.88-2.13.1-.13-3.72-2.07-2.2C231.9,297.26,228.71,295.06,228.83,296.85Zm114.11-.44c.1,1.63,3.81,2,4.55,0C345.57,296.87,343.91,295.61,342.94,296.41Zm-86.41,1.76c.62,0,1.69,1.63,2.07.43-.48-.07-.45-.69-.42-1.31A1.78,1.78,0,0,0,256.53,298.17ZM387.6,299c.76.11,3.74,1.42,3.72-.44-2.78,0-4.46-1.09-5,.88-.89-1.88-2.9-.37-4.14-1.31-.12.86.56.87.83,1.31-1.61.49-2.72,1.5-4.55,1.76.25,0,.49.06.41.43-.25,0-.48.07-.41.44,1.41-.77,1.54.14,2.07,1.32-1.08.16-2.27.22-2.89.87.51,1.21,2.3,1.06,2.89,2.19-1.47,1.37-6.22-.74-7,1.32,5.74-.12,12.56,1.38,16.95-.44-.49-.07-1.17.08-1.24-.44a5.66,5.66,0,0,0,2.48-2.63C384.36,304.17,388.24,302.88,387.6,299Zm-141.82,4.39c.94-.22,2.11-.87,2.89,0a51.38,51.38,0,0,1-5-4.83C244.1,301.36,245.45,300.49,245.78,303.43Zm119.08-3.51c-.59.12-.47,1-.83,1.32.6-.24,2.14.51,2.07-.44-1.57-.75.89-.72.83-1.32a3,3,0,0,0-2.9-.88C363.9,299.47,364.59,299.47,364.86,299.92Zm-6.62,0c-1.92.84-4.87-1.73-7.44-.44C352.7,300.81,356.19,302.11,358.24,299.92Zm12,.44c-1.43.35-1.59-.66-2.89-.44.1,1.28-.78,1.51-1.24,2.19a4.61,4.61,0,0,1,4.55-.44c-.48-1.38.65-1.06.82-1.75-.52-.09-2-1.28-2.06-.44C369.87,299.57,370.05,300,370.23,300.36Zm-105,1.75c.55.73,2.35.15,2.9.88-1.45-1.06-.44-2.11-1.66-3.07C266.65,301.29,265.34,301.08,265.21,302.11Zm-.41,0c.29-1.22-2.06-1.85-2.48-.87C262.85,301.84,264.27,301.5,264.8,302.11Zm-41.34.44c1.21.38-1.26.35-.42,1.75,1.09,1,3.72.44,4.55,1.76-.24,0-.47.35,0,.43C228.32,304.86,224.34,302.44,223.46,302.55Zm232.36.88h1.65c.24-1.26.31-.76.83-2.19C456.69,301.14,455.44,301.41,455.82,303.43Zm-138.92,0c1.14-.1,1.16-1.39,2.06-1.76h-2.48A2.55,2.55,0,0,0,316.9,303.43Zm-56.23,1.75c-1.82-.27-3.07-1.14-5-1.32.53,1.3-1.18,2.47-1.24,2.63,2.84-1,3.08.21,1.66,2.19-1.72-1.31-2.86-.9-4.55-1.75-.73,2.24,2.18.6,2.07,2.2-1,.54.1.36-1.25,1.75,2.34-.15,8,.35,4.55-2.63,1.57.07,2.62,0,1.24-.88,3.13-.53,2.49,2.92,4.55,3.51,1.3-.8-1.39-1.49,0-2.2.61.24,1,.66,1.66.89,1.25-.78-1.13-1.36,0-1.76.25,0,.48-.07.41-.44-1.53.81-1.49.56-3.72.44-.47-2.07-2.61-1-3.31-2.63C259.08,304.57,260.26,306.26,260.67,305.18Zm89.3-.88c-.18,1.7,1.24-.23,1.66,1.32.13,1-1.2.48-1.24,1.31,2-.84,1.1,1.46,2.47,1.32,1.51-1.4.12-2.49-.82-3.51.62-.07,1.53.16,1.65-.44C352.31,303.55,351.86,304.52,350,304.3Zm-3.3.44c.08,1.73-.84,3.18.41,3.94.91-1,.36-1.17.82-2.19-2.49-.1,1.07-1.87-.41-2.19C347.4,304.64,347.15,304.81,346.67,304.74Zm-34.32.88c1.34-.51,2.54,1.34,3.31,0C313.94,305.8,313.29,303.94,312.35,305.62Zm-48,.87c-.72-.15-2.56-1.32-2.9-.43C262.14,306.28,263.71,307.74,264.39,306.49Zm24.39,1.32c2.57-.67,2.57,1.36,4.13,1.76.49-.95,1.8-1,2.48-1.76C292.68,308.64,291.26,306.29,288.78,307.81Zm-70.29,1.32c.09.82-.47,1-.41,1.75,1.15.06,4.11.55,5,.44-.49-.65-1.56-.68-2.07-1.32,1.81-.16,2.13,1.25,3.73,1.32-.58-2-4.76-2.56-5.79-2.64C220,309.33,219.78,309.61,218.49,309.13ZM357,313.07c-1.13-2,3.08-1.55,2.07-3.07-1.08,1-4.82-.16-5.79,2.63C354.87,312,355.17,311.29,357,313.07Zm-2.89-2.63c-1.06.47-1.45-1.89-2.07-.44.25,0,.49.07.42.44-.62.07-1.53-.16-1.66.44C352.27,312,353.26,312.49,354.11,310.44ZM276.79,310c-.73.25-2.43-.53-2.48.44C275.26,310.78,276.89,312.09,276.79,310ZM374,314c-.49-2.76-4.07-1.05-6.2-1.32,1.09,1.22,4.91.56,2.9,2.63C372.93,315.77,372.09,312.7,374,314Zm14.89,4.82c.77-.42,1.38,1.31,1.65,0-2,0,.94-1-.41-1.76a2.22,2.22,0,0,0-1.65.44c-.18-.83-.9-1.1-.83-2.19,1.36,1,4,1.18,5.37,0-.69-.77-1.38.39-2.89,0-.39-1.83-.28-1.73.82-2.63-3.61-1.05-6.29,1.11-9.92-.87.65-.05,1.43.06,1.24-.88h-2.07c-.41.87-.71,1.87-1.65,2.19-.75-.42-1.92-1.08-.82-2.19-1,.05-2,.07-2.49-.44,3,3-.93,3.38-2.89,4.82,1.21.67,3.52-.86,3.72,1.32a8.11,8.11,0,0,0,4.13-.88c-.44-.32-.48-2.17.42-3.07,1.58,3.14,2.84,3.46,2.89,5.7.39-1.49,1.31-.27,2.48-1.32-.05,1.81,3.24.08,3.72,1.32C389.34,318.43,388.85,318.34,388.84,318.77Zm-103.78-5.7c-1.38,0-3.09-1.95-3.72-1.31C281.81,312.73,284.3,313.84,285.06,313.07Zm6.61,0c0-.58-.72-.4-.82-.88.62-.07,1.52.16,1.65-.43-1.36-.09-2.9.07-4.14,0C289.33,312,292.45,313.84,291.67,313.07Zm37.21,2.19c-.55-1.9,2.06-.77,2.9-2.19-1.64.54-2-2.54-2.9-1.31C329.71,312.62,327,314,328.88,315.26Zm-53.75-2.63c.29.34,2.31,1,2.48,0C276.6,312.85,276,310.88,275.13,312.63Zm27.7,1.76c-1.18-2.92-5.33-2.17-7.85-2.63A12.42,12.42,0,0,0,302.83,314.39Zm11.58,1.31a1.19,1.19,0,0,1-.82-1.31,1.82,1.82,0,0,0-1.24.43c.17-1.05-.76-.95-.42-2.19-1.39.83-1.35-2-2.06-.44a2,2,0,0,1,.82,1.76h-4.13c.74,1.58-.47,2.21-.41,3.06-.8-.18-.75-1.25-2.07-.87.12.86-.56.87-.83,1.31,1.91-.74,2,1.39,1.24,2.19h1.66c.56-1-1.07-1.64,0-1.75.17,1.59,2.78.3,2.89.88,0,1.35-1.25,1.31-2.48,1.31a2.12,2.12,0,0,1-.41,1.32c1.09,0,2.36-.17,2.89.44-.9-1.76,1-1.69,2.07-1.32.31-1.5-1.69-.55-1.24-2.19,1.46-.15,1.07-1.15.82-2.19.25.61,1.59.06,1.66.87-.61.08-.38,1.06-.42,1.76a9,9,0,0,1,5,.44c-.21-1-.82-2.24,0-3.07-2.09-1.06-2.93,1.56-4.14-.44C313.53,315.28,314.14,317,314.41,315.7Zm3.31-3.07c-1-.19-2.66-1.81-3.72-.44C314.13,313.25,317.11,313.54,317.72,312.63Zm2.9,1.76c-1.05-1.57-.49-1.29.82-2.2-.72.12-2.06-1.23-2.48,0,.65.12.29,1,0,1.32C320.09,313.19,319.8,314.38,320.62,314.39Zm314.23-1.32c.12-1.15-.57-1.44-1.66-1.31C632.78,313.22,633.77,313.19,634.85,313.07Zm-361.37,3.51c2.85-.53,1.75,1.13,2.9,1.75,0-2.5-1-3.87-3.31-3.94C272.9,315.44,273.82,315.34,273.48,316.58Zm79.8.43c-1.13-2.85,2.55-.55,3.72-1.75-1.45-.23-4.43-1.12-5.37-.44A4.47,4.47,0,0,0,353.28,317Zm-62.85.88c-1.32-.37-2.21-3.48-3.72-2.19C288.24,315.84,289.24,318.84,290.43,317.89Zm5.38-1.31c2,.52,4,1.21,5.79,0C299.62,316.53,297.08,314.89,295.81,316.58Zm30.6.43c-.33-.09-.82,0-.83-.43.25,0,.49-.07.41-.44-1.17.36-1.07-.62-2.07-.44C324.12,316.55,325.77,318.07,326.41,317Zm-43.84,2.2c.62.22,1.05.64,1.66.87-.24-1.76,3.48-.73,1.24,0,1.17-.07,2.84.38,2.89-.87-.69-1.6-4.29-.13-5-1.76.44,0,.33-.56-.41-.44C283.33,318.26,282.41,318.15,282.57,319.21Zm-44.23.87c-.42-.61-2.22-2-2.89-.87C236.49,319.16,237.78,321.06,238.34,320.08Zm52.51,3.51c1.3.22,1.46-.79,2.89-.44.17-1-.75-.95-.41-2.19C291.5,321.57,292.64,322.78,290.85,323.59Zm5.37-4.82c-1.39.28-3,.31-3.72,1.31C293.88,322,295.63,320.21,296.22,318.77ZM331,324.91c.74,0,2.41,1.17,2.89,0-1-.52-1.52-1.15-.41-1.76-1.73-.06-1.84-1.84-4.13-1.31,1.22-1.73-1.72-2.08-2.48-3.07-.18.84-.15,1.89-1.24,1.75.29,1.1.41,1.8-.42,2.63-4.89-.1-1.19.77,1.66.44a2.2,2.2,0,0,1,.82-2.19C328.28,322.25,333.24,322.51,331,324.91ZM388,319.64V321c.62-.07,1.52.16,1.65-.44-.68,0-.23-1.21-.82-1.31C388.74,319.55,388.49,319.72,388,319.64Zm-31.42.88h-1.66C354.71,322.78,358,322.51,356.59,320.52Zm-95.1,1.32c-1,.14-2-1.92-2.89-.44C259,321.88,260.85,323,261.49,321.84Zm100.06,0c1.17-.36,1.07.61,2.07.43C364,320.66,361.58,320.53,361.55,321.84Zm74,1.75c.63-.63.4-2.29-.83-2.19C435.35,322.68,434.26,323,435.56,323.59Zm-172.83,0c-.55,0-.37.77-.83.88-2.64.18-4.86-1.16-6.2.87,1.45-.07,2.65.12,3.31.88-.77.78.34,1.11,0,2.63,2.4-.09,4.39.83,6.62,0-.55-.44-1.54-.41-1.66-1.32,1.7.72,1.76-.76,3.72,0-.66-1.67-.66-.51,0-2.19-.5-.69-2.87-1.56-2.06-3.5-1.4.5-1.77-.31-2.49.43C263.88,323,259.91,322.5,262.73,323.59Zm124.45.44h1.25a2.14,2.14,0,0,1,.41-1.32h-1.66Zm-108.74.88c-2.35-.06-4.43-.36-6.2-1.76,1.1,2.32-2.54.06-2.89,2.63.88,1.22,2.25-.81,2.48.88s-2.17.63-2.07,2.19c1,0,1.22-.75,2.48-.44a12.65,12.65,0,0,1,.41-3.07C274,325,277.92,327.21,278.44,324.91Zm-24.39,0c-.65-1.25-2.22,1-2.9-.44a2.87,2.87,0,0,0,1.24-.88c-1,.27-3-.55-3.3.44C250.43,325.53,252.62,326.28,254.05,324.91Zm183.16.87c-2.3-1.5,3,.55,2.89-1.75-2.35,0-2.49-.34-4.54,0a2.05,2.05,0,0,1-.42,1.31C436.2,324.87,436.6,327.23,437.21,325.78Zm-7.86,3.51c.9,1.63.49.81-.4,2.19,1.46,1.28,2.5-1.31,1.64-2.63h-.82C429.75,329.12,429.71,329.37,429.35,329.29Zm2.9-3.51a2.94,2.94,0,0,1-1.24-.87c.73-.11,2.07.44,1.65-.88a4.84,4.84,0,0,0-4.54,3.5c.8.18.32,1.7,1.65,1.32C432.73,327.48,429.55,327.43,432.25,325.78Zm-89.72,0c-1.73.23-2.09-1-3.31-1.31C338.43,326.65,341.82,326.65,342.53,325.78Zm42.59-.44c1.42-.63,1.95.49,2.89-.43C387.11,324.67,385.33,323.85,385.12,325.34Zm7,1.32c1.1-.25,2.58,1.3,3.31,0-1.54.46-.82-1.48-1.66-1.75C394.6,326.52,391.63,325.94,392.15,326.66Zm-134.38,1.75c-6.78,1,4.08-.32-1.24-.88A1.15,1.15,0,0,1,257.77,328.41Zm-15.71,1.32a12.65,12.65,0,0,0-1.24-2.2c-1-.18-.9.8-2.07.44a2.59,2.59,0,0,1-.41,1.76c1.49.88,2-.05,3.31-.44C241.63,329.75,241.84,330.4,242.06,329.73Zm34.73,3.5v-.87c.62-.08,1.52.15,1.65-.44-.5-.05-1-.13-.83-.88,1.34.28,2.45.49,3.31,0-1.16-.25-3.64-1.37-4.54-.43C277.88,331,275.51,333.08,276.79,333.23Zm157.53-.44h2.48c.29-2.47,4.11-.25,3.3-2.62C438.29,329.77,435.88,331.56,434.32,332.79Zm-191.43,1.32c-.64-2.6,1.51.25,2.07-1.32-2-.88.78-.6.82-1.75-1.64-.28-2.23.56-2.89,1.32-.14-.6-.59-.84-.42-1.75h-1.24C240.66,332.52,241.45,333.33,242.89,334.11Zm141.81-2.63c.75.41,2.42.54,1.24,1.75.6-.24,2.14.52,2.07-.44-1.69.21,0-1.1,0-1.75C386.78,330.64,385.33,330.22,384.7,331.48Zm-124.45.44c1.47,1.31,3.71-.83,4.55.87C264.4,330.36,261.11,331,260.25,331.92Zm9.51.87c.38-1.86-1-1.87-2.48-1.75C267.23,332.56,268.11,333.08,269.76,332.79ZM383.87,331c-1.71-.12-1.61.58-2.89,0C380.45,332.42,384.4,332.42,383.87,331Zm-108.74,1.32c-.55-.73-2.34-.15-2.89-.88C272,332.84,274.61,333.31,275.13,332.36Zm-14.46,1.31c.32.1.47.37.41.88-.32.1-.82,0-.83.44.82.73.53,0,1.65,0a2.16,2.16,0,0,0-.41-1.32c.51-.05,1-.13.83-.88A1.78,1.78,0,0,0,260.67,333.67Zm153,2.19c2.31.26,2.57-1.65,3.3-3.07h-2.89C415.05,334.66,414.64,334.43,413.65,335.86Zm89.72-1.75c.34,1.45,3.47-.64,2.89,2.63,1.62-1.07,3.9-1.42,5.38-2.63C508,334,506.1,331.78,503.37,334.11Zm-165.8,0a2.93,2.93,0,0,1,1.24.88c1.3.21,1.09-1.51,2.07-.44v-1.32C339.62,334.3,338.68,333.42,337.57,334.11Zm33.9.44c2.65-.28,4.82,1,7,.44C376.86,333.58,373.6,333,371.47,334.55Zm7.44,0c1.54.36,2.56-.31,1.66,1.31,3.59.47,7.73,1.05,9.51-2.19C385.78,335.55,383.4,332.76,378.91,334.55Zm48.38.44c1.73-.06,2.31.79,3.72,0C430.89,332.4,428.56,334.89,427.29,335Zm22.74-.44c-1.38-.53-1.43.17-2.89-.88C447.22,334.93,449.71,336.17,450,334.55Zm51.68,1.31c.32-1.64-1.08-1.48-1.65-2.19-1.35.75,1.62,1.73-.41,1.75-.08,1,.34,1.4,1.23,1.32.92-.63-.52-1.07.42-1.32C501.32,335.69,501.36,336,501.71,335.86Zm11.58-.44a7.62,7.62,0,0,0,2.48-1.31c-1,0-1.22-.75-2.48-.44Zm-165-.87a10,10,0,0,0-2.9,0C345.92,335.26,348,336.14,348.32,334.55Zm47.14-.44h-1.25c.35,1.4-.65,1.36-.82,2.19a2.2,2.2,0,0,0,3.3-.88C395.24,334.76,394.94,336.07,395.46,334.11Zm41.75.88c.11,1.25,2,1.75.83,3.07,1.33-.9,1.61-2.21,2.89-3.95C439.24,334.23,438.76,335.89,437.21,335Zm-45.48,3.94c-.74-1.71,2.36-1.54.83-2.63-.38,1.19-1.52-.37-1.66-.88.78-.41,1.39,1.32,1.66,0-.29-.34-2.31-1-2.48,0C391.55,336,389.1,338.32,391.73,338.93Zm105-1.75c.19-1.37-.88-1.4-2.06-1.32C494.62,337.09,495.69,337.13,496.75,337.18Zm-109.57.88h2.48v-1.32C388.27,336.57,387.9,337.5,387.18,338.06Zm236.09.43a4,4,0,0,0,2.48-1.31C624.52,337.19,623.23,337.14,623.27,338.49Zm-286.94,0c-2.15.8-3.37-1.67-4.55-.43C332.75,338.4,335.49,340.86,336.33,338.49Zm9.09.44c-.26-1.48-2.23-1.14-3.72-1.31C341.51,339.58,344.93,337.7,345.42,338.93Zm51.27,1.75c.26.61,1.6.07,1.66.88-.25,0-.49.07-.42.44,1.19.09,2.26.05,2.07-1.32-2.29.14-1.4-1.12-.83-2.19-1.3.61-2.49-1.08-2.89,0C397.33,338.54,397.26,340.13,396.69,340.68Zm-55.81.45c-.69,0-3-1.43-2.9.43,2.08.78,3.74,0,6.62.44,0-1-.72-1.29-.42-2.63-1.1,0-2.35.17-2.89-.44C341.06,339.57,341.77,341.2,340.88,341.13Zm276.6-.45c1.06-.33,2.35-.43,2.9-1.31C618.9,339.27,617.9,339.67,617.48,340.68Zm-265-.43c.33,1.23-.59,1.13-.42,2.19,1.24,0,1.74-.79,2.07-1.76-1.33.49-1.85-2.07-2.9-.43C351.8,340.42,351.91,340.77,352.46,340.25Zm-17.79,2.19c1.85.35,2.3-.78,2.49-2.19C335.11,339.69,335.17,341.35,334.67,342.44Zm52.93-.88c.53.61,2.47.77,2.48-.43C388.68,341.15,388.31,340.33,387.6,341.56Zm76.07.44c.06-1.23-1-1.27-2.07-1.32C461.77,341.79,463,342.7,463.67,342Zm-62.84.44c-.59,2.23,6.7,1.63,5.37.44-1.33-.08-3.62-.77-4.55-.44C402.84,343,401,343,400.83,342.44Zm-19.43,1.75c.28.35,2.3,1,2.47,0C383,343.94,381.9,342.39,381.4,344.19Zm-2.49,2.19c1.73.86,6.27,1.91,6.62.44-1.46.24-1.81-.71-2.48-1.31.07,1.85-.64,0-1.24,0C381.86,347.21,379.8,344.39,378.91,346.38Zm179,1.32c.23-.28,1.68-1.33.42-1.75-.17.74-.54-.1-1.25,0C557,346.94,557.22,347.59,557.94,347.7Zm-188.53,2.19c.72-.25,2.43.53,2.48-.44-.33-.09-.49-.37-.42-.87-1.44.61-2.64-1.23-3.31,0C369.12,348.72,370.26,349,369.41,349.89Zm195.15,3.95c-.56,1.64,1.91,2.31,2.48,1.31-.77-.11.23-.72-.42-.88C566.25,355.46,565.18,353.83,564.56,353.84Zm12.81,5.26c1.41,0,2.89.13,3.32-.88a14.88,14.88,0,0,0-2.9-.88C577.88,358.17,577.32,358.31,577.37,359.1ZM219.74,321.84c.82-.88-.31-1.91-1.25-2.2C218.41,320.9,218.44,322,219.74,321.84Zm5,1.75c-1.63.2-2.65-3.2-3.73-.88C222.52,322.42,223.59,324.88,224.7,323.59Zm7.85-44.71c.18.39.36.78.83.88-1,1.08-2.78-.84-3.72-1.32.3-1,1.57-1,1.65-2.19,1.21,2.37,4.32,2.72,6.2,4.38A15.7,15.7,0,0,1,232.55,278.88ZM399.17,278c-.89-1.38,1.82-.62,3.31-.43C401.71,279.5,400,276.74,399.17,278ZM193.69,250.82c-.13-1,1.19-.48,1.24-1.31,1.29.56.21.9.82,2.19-1-1.2-2.34.77-3.31-.44C192,250.42,195,251.94,193.69,250.82Zm5,6.14c.63-.91,2.5-.12,4.54.44C206,258.16,199.52,257.72,198.65,257Zm6.2,1.76c.78-.55,1.12,0,2.89-.44.36.35.25,1.2.83,1.31C207.62,260.71,206.14,258.68,204.85,258.72ZM541,261.78c-.71,1.09-2.73.79-1.65,2.63-1.32.38-1.57-.38-2.07-.87-.88.13.59,1.35.82,1.75-1.11.76-1.87.17-3.3,0-.06-.88,2.81-2,.83-2.19C536.79,261.24,539.46,262.45,541,261.78ZM352.86,277.12c.84-1.57,1.38.32,2.9,0-.83-.72-1.53-1.59-2.9-1.75,3.58-2.21,3.46,3,2.9,4.39-1.49-.67-2.63.84-2.9-1.32,1.55.74.66-.26,2.07-.44A2,2,0,0,0,352.86,277.12Zm65.75,5.7a6.92,6.92,0,0,0,0,3.07c-.75-.05-.88.54-1.66.44C418,284.89,417.41,283.38,418.61,282.82ZM203.19,292c.44-.86,2.17.59,2.48,1.31C205.11,294.34,204,292.26,203.19,292Zm15.3,8.33c-.76,1.05-1.61-1.48-3.31-.88v-1.75c-1.54.9-2.42-2.06-2.48,0-1.24-.66.31-2,1.25-1.76-.5,1.31,1.74,1.89,2.06.88C216,297.76,217.54,299.18,218.49,300.36Zm28.12,24.11c-.11.47-.83.29-.83.87.08-.79-.67-1.83-2.07-2.19-.74-.13,0,1.7.83,1.32-.89,1.19-2-1-2.89-1.32.84-1,.58-1,1.65-2.19C243.1,322.65,245.32,323.18,246.61,324.47Zm-44.24-20.61c1.36-1.1-1,1.53,0,1.32-.85,1.42-1.05-1.48-2.07-1.32.12-1,1.54,0,1.65.44C202.3,304.39,202.34,304.13,202.37,303.86Zm186.88.44h1.24c-1,.55-.83,2.34-2.48,2.19C388.13,305.46,389.45,305.68,389.25,304.3Zm-152.57,1.76c1.45-.64,4.55.72,5.38,2.19C240.89,308.59,238.37,306.62,236.68,306.06Zm7.86,0c1-1.19,1.87,1.49,3.31,1.31C247,308.4,245.44,306.44,244.54,306.06Zm-34.32,1.31c.11-1.13.71.6,1.65,0,.31,1.2-.81.88-.82,1.76-.08.37.16.41.41.44C210.34,310.57,210.66,307.67,210.22,307.37Zm26.46,4.39c-.05.52,1.27,1.5.42,2.63-1.47-.18-.82-1.92-2.48-.88,1.1-1.87-.76-1.37-1.66-2.19v-.88C235.25,310.46,235.52,312.4,236.68,311.76Zm14.89,5.69a2.18,2.18,0,0,0-.42,1.32c-1-.45-1.33-1.51-2.89-1.32.84-.84.44-2.32-1.24-1.75,0-.43.51-.34.83-.44a2.17,2.17,0,0,1-.42-1.31C249.51,314.38,249.18,317.35,251.57,317.45Zm-38.87-2.19c-.23-.26,2.93.19,3.72,0A2.6,2.6,0,0,1,212.7,315.26Zm-.83.44a3.86,3.86,0,0,0,2.49,2.19c-.26.39-.51.78,0,.88C213.88,319.23,210.73,317,211.87,315.7Zm5.8,14c-.94,1.3-6.22,2.34-7.45.44C212.6,330.65,215.43,329.88,217.67,329.73Zm-4.55,3.06c-.13-.78,1.6,0,1.24.88-1-.06-2-.08-2.07.88,2.84.55,4.53.13,7,.87-2.65.67-6.2,0-7.86,0,.2-1.4,1.63-1.92-.83-1.75.32-1.59,1.33,0,2.9-.44C213.61,332.86,213.37,332.82,213.12,332.79Zm16.12-.43c.08.37-.16.41-.41.43-1.16.44.6,1.17-.41,1.76-1.27.32-1.22-.76-2.49-.44C226.51,333,228.07,332.87,229.24,332.36ZM302,342c.69-.58.88-1.7,2.48-1.32,0,.63-.07,1.25.41,1.32C304.85,342.72,303.18,341.54,302,342Zm-11.58-.44a3.45,3.45,0,0,1,3.31,0A5.41,5.41,0,0,1,290.43,341.56Zm163.32,3.07c3.05.25,4.63,2.27,6.61.44C459.69,349.22,454.46,345.34,453.75,344.63ZM409.92,346c-1.17-.37-1.07.62-2.06.43.72-2.46,2.5.6,4.13,0-.55.63-1.84,1.16-2.48.44C409.59,346.47,409.92,346.38,409.92,346Zm163.73,24.11c.13-.93,1.44.46,1.25,1.31-2.25,1.13-4,2.82-6.62,3.51C568.56,372,574.93,373.17,573.65,370.06Zm-358-114.85c-.29.35-.64,1.2,0,1.31-1.17,1.21-1.87-1.8-3.73-1.31.78-.78-.33-1.12,0-2.63a11.55,11.55,0,0,0-3.71,0c-.31-1.2.82-.88.82-1.76-1.34-.25-1.92.31-2.89.44,1.07-1.15-.67-.34-.42-1.75,2.33.7,3.71,1.54,5.79.44C212.62,252.58,213.81,254.18,215.6,255.21Zm96.33,70.13c.36,2.4,1.78,3.66,2.9,5.27h-1.66c.42.58.4,1.62,1.24,1.75-2.75,2.2-3-1.66-5-2.19C311.32,329.12,310.24,326.93,311.93,325.34Z" transform="translate(-185 -245.12)"/></svg>