<svg id="Layer_1" data-name="Layer 1" xmlns="http://www.w3.org/2000/svg" viewBox="0 0 70.45 73.21"><defs><style>.cls-1{fill:#a6dfda;}.cls-1,.cls-2{fill-rule:evenodd;}</style></defs><title>lamp</title><path class="cls-1" d="M42.79,0c-1.35,0-2.71.16-4,.27A20.41,20.41,0,0,0,34.43,1c-.94.28-1.94.51-2.93.7A38.11,38.11,0,0,0,25,4c-.38.15-.84.39-1.23.57-.68.32-1.3.75-1.93,1.1-.45.26-1.09.25-1.43.81-.2.33-.68.5-1,.74a23.91,23.91,0,0,0-3.05,2c-.91.82-2,1.41-2.94,2.26-.63.59-1.37,1-2,1.67-.43.46-.74,1-1.16,1.44s-1.14,1.1-1.72,1.64A18.52,18.52,0,0,0,7,18.44,28.38,28.38,0,0,0,4.47,22c-.85,1.5-1.92,2.94-2.18,4.78-.15,1-.75,1.91-.86,3A2.44,2.44,0,0,1,1,30.94c-.33.4-.65.83,0,1.24a.25.25,0,0,1-.19.09H.48c.34.67.33.67-.11,1.2-.08.1-.19.2-.15.35a4.23,4.23,0,0,1,0,2c-.23,1.49,0,3-.18,4.47a.45.45,0,0,0,0,.23A1.51,1.51,0,0,1,.1,41.8c-.08.17-.14.76.06.77.77,0,.32.49.33.78a11,11,0,0,0,.45,2.54c.28.92.48,1.87.84,2.75a12,12,0,0,1,1.11,2.28,9.84,9.84,0,0,0,1.61,3.2c.88,1.3,1.8,2.56,2.63,3.89a25,25,0,0,0,3.67,4.23c.27.27.44.7.83.85,1.25.51,2,1.68,3.11,2.39a31.33,31.33,0,0,1,3,2.38,26.67,26.67,0,0,0,2.73,1.6,12.75,12.75,0,0,0,3.3,1.6,8.08,8.08,0,0,1,1.64.54c1.52.79,3.23.78,4.85,1.13a35.76,35.76,0,0,0,4.39.36,17.08,17.08,0,0,0,1.75.08,26.21,26.21,0,0,0,4-.33,7,7,0,0,1,1.2-.19h.38a3.8,3.8,0,0,0,1.16-.23l2.57-.76A15.63,15.63,0,0,0,47.88,71c.56-.27,1.18-.42,1.75-.67a7.4,7.4,0,0,0,1.29-.4c.87-.54,1.78-1,2.62-1.59.47-.33,1.08-.5,1.55-.88a5.5,5.5,0,0,1,1.2-.89c.92-.38,1.37-1.3,2.26-1.66a1.19,1.19,0,0,0,.46-.4,18,18,0,0,1,2.14-2.47,9.64,9.64,0,0,0,1.78-1.83c.89-1.33,2-2.47,2.8-3.91a41.63,41.63,0,0,1,2-3.72,15.42,15.42,0,0,0,1.35-3.47,16.52,16.52,0,0,0,1-4.61A4.27,4.27,0,0,1,70.22,43a3.35,3.35,0,0,0,.12-2.21c-.15-1,0-2.07-.09-3.11a30.28,30.28,0,0,0-1.34-6.46,25.46,25.46,0,0,0-2.16-4.79c-.91-1.57-2-3-2.89-4.57a24.4,24.4,0,0,0-3.15-4.15,23.26,23.26,0,0,0-6-4.86,9.92,9.92,0,0,1-2-1.2c-.21-.19-.32-.32-.1-.62.65-.9,1.39-1.74,2-2.64.84-1.22,1.77-2.38,2.58-3.64.64-1,.62-1.52-.47-2.06a14.86,14.86,0,0,0-3.06-1.27A29.58,29.58,0,0,0,48.22.28C46.52.19,44.82,0,43.11,0Z" transform="translate(-0.03 0.04)"/><path class="cls-2" d="M34.33,35.85h.86a1.39,1.39,0,0,1,1,.31c.45.4.25.85.17,1.23a35.19,35.19,0,0,0-.93,6.38,30.84,30.84,0,0,0-.06,4.9,13.6,13.6,0,0,1,.3,2c0,.28,0,.34-.27.35a10.22,10.22,0,0,0-1.83.11H33.4a.45.45,0,0,1-.44-.24c-.12-.26,0-.31.12-.31h.17a1.21,1.21,0,0,0,0-.38,8.44,8.44,0,0,1-.09-1c-.39-1.41.21-3-.49-4.26-.45-.82,0-1.66-.32-2.43s-.08-1.5-.72-2.31h0l.49.27a3.56,3.56,0,0,1-.63-1.53,4.21,4.21,0,0,1-.08-2.67.8.8,0,0,1,.82-.4h.41a1.31,1.31,0,0,0,.28,0,9.25,9.25,0,0,1,1.39-.16Zm-.5-9.94a11.66,11.66,0,0,1,3.61.63,10.1,10.1,0,0,1,4.78,3.35,8.57,8.57,0,0,0,1.4,1.82,1.72,1.72,0,0,1,.4,1.15c0,.74.45,1.24.63,1.85.3,1,.31,2,.61,2.9a7.06,7.06,0,0,1,.12,2.15A4.26,4.26,0,0,1,44.65,42c-.29.45-.55.92-.85,1.37-.54.83-1.09,1.65-1.61,2.49a8.62,8.62,0,0,0-1.39,2.52,13,13,0,0,1-.8,2.19c-.11.22-.16.26-.42.28s-.47,0-.71,0h-1a6.52,6.52,0,0,0-1.25.1c.71-.7.33-1.55.19-2.16a9.49,9.49,0,0,1-.11-2.32c0-.67.18-1.4.15-2-.06-1.2.26-2.32.3-3.49,0-1.35.61-2.63.65-4,.72-.41,0-1.25.53-1.76.27-.24-.15-.36-.35-.4a8,8,0,0,0-1.38-.18h-.06a19.84,19.84,0,0,0-3.77.22,2.76,2.76,0,0,1-.7.06h-.91a4,4,0,0,0-.84.09c-.65.18-.88.45-.65,1.1a31.13,31.13,0,0,1,1.09,4.48c.31,1.58.74,3.13,1,4.73s.36,3.52.56,5.27c0,.43-.12.62-.44.62h-.8a7.65,7.65,0,0,0-1.35.08h-.16c-.29,0-.53-.16-.52-.44A4.45,4.45,0,0,0,28.57,49a8.69,8.69,0,0,0-1.67-3c-.14-.15-.08-.28-.09-.45,0-.5-.47-.82-.7-1.23A30.32,30.32,0,0,1,24.57,41c-.32-.76-.49-1.65-.74-2.44a8.68,8.68,0,0,1-.39-3.58,9.41,9.41,0,0,1,3.42-6.51,12.17,12.17,0,0,1,4.38-2.14,9.13,9.13,0,0,1,2.6-.37Zm5.9,25.84a.18.18,0,0,1,.17.19.09.09,0,0,1,0,.05c0,.07-.13.15-.11.2.11.38.17,1,0,1.07a.89.89,0,0,1-.48.1H38.19c-1,0-1.9.25-2.86.25h-.4c-1.66-.13-3.31-.23-5-.35h-.16c-.22,0-.43,0-.39-.35a.77.77,0,0,1,.57-.67,1.8,1.8,0,0,1,.65-.09c.34,0,.67.06,1,.07h2.27a24.12,24.12,0,0,0,3.29-.2,4.33,4.33,0,0,1,.72,0h.53a3.43,3.43,0,0,0,1.27-.18Zm-.47,2.14c.28,0,.27.16.25.77a1.81,1.81,0,0,0,.07.52c.13.34,0,.42-.29.42H39c-1,0-2.08.2-3.11.2h-.74c-1.15,0-2.29.14-3.43.14h-.93c-.67-.06-1.09-.44-1.09-1s.17-.9.67-.9h.21c1.36.14,2.72.21,4.06.33h.67A24,24,0,0,0,38.68,54a6.14,6.14,0,0,0,.62-.08Zm.16,2.32c.28,0,.1.46.09.81h0c.1.36.13.9-.16,1.14a.4.4,0,0,1-.28.08c-.23,0-.53-.08-.79-.08h-.1a15.37,15.37,0,0,1-1.66.08c-2,0-3.88-.29-5.82-.47-.26,0-.6,0-.57-.44s.21-.44.45-.44h.19c1.12,0,2.24.08,3.36.08h.54c1.17,0,2.33-.12,3.5-.18a1.74,1.74,0,0,0,.74-.38,1.17,1.17,0,0,1,.51-.19Zm-6.05,3c.08,0,.16.18.24.19.76,0,1.5.26,2.26.26a3.06,3.06,0,0,0,1-.14h0c-.34.24-.38.66-.76.88a2.45,2.45,0,0,1-1.24.36A2.18,2.18,0,0,1,33.23,60c-.28-.32,0-.43.07-.61s.08-.16.12-.16ZM33.18,24.7a9.19,9.19,0,0,0-3.06.68A12.85,12.85,0,0,0,26.5,27.3a8.11,8.11,0,0,0-2.91,3.59,13.37,13.37,0,0,0-.79,1.5c-.24.82-.19,1.66-.4,2.47,0,.17-.33.23-.25.46.22.59.16,1.24.35,1.82s-.47,1.08.17,1.49c-.34,1.27,1.18,2.09.79,3.36.71.34.64,1.15.89,1.69.75,1.64,1.86,3,2.7,4.63.72,1.32.59,2.75,1,4.08a7.06,7.06,0,0,1,.34,2.54c-.05.83.42,1.56.26,2.44a1.65,1.65,0,0,0,1.48,1.8h.15c.24,0,.56-.17.83-.17s.49.18.51.88c0,1.06,1.92,2.12,3,2.28h.45c1.33,0,2.08-.94,2.76-1.9a1.37,1.37,0,0,1,1-.73c1.31-.24,1.76-.59,1.85-1.75.06-.63,0-1.29,0-1.93,0-1.1.25-2.22.25-3.29s.4-1.73.33-2.65.76-1.35,1.17-2c1-1.72,2.3-3.29,3.18-5.13a8.6,8.6,0,0,0,1-4.85c-.06-.43-.31-.9-.19-1.26a2.68,2.68,0,0,0-.41-2c-.1-.24.12-.88-.47-.9.21-.89-.42-1.52-.68-2.27a6.43,6.43,0,0,0-.54-1A8.77,8.77,0,0,0,42,27.9c-.7-.53-1.45-1.07-2.22-1.54a17.1,17.1,0,0,0-2.91-1.27c-1.14-.43-2.38-.18-3.56-.36Z" transform="translate(-0.03 0.04)"/><path class="cls-2" d="M48.57,44.16c-.6,0-.45,1.1-.1,1.55a10.57,10.57,0,0,1,.64,1c.45.73,1.51,1.11,2.17,1.71a11.15,11.15,0,0,0,2.49,2.1,5.75,5.75,0,0,0,1.67.5c.26,0,.43-.09.42-.35a.92.92,0,0,0-.26-.55,9.12,9.12,0,0,0-2.37-2.18c-.34-.23-.34-.75-.84-.8s-.79-.58-1.17-.87c-.7-.53-1.62-1.78-2.43-2a.81.81,0,0,0-.22,0Z" transform="translate(-0.03 0.04)"/><path class="cls-2" d="M50.74,41.64c-.37,0-1.23.45-1.16.64a1.56,1.56,0,0,0,.92.86,37.49,37.49,0,0,0,4.74,1.55,15.19,15.19,0,0,0,3.06.67h.39a.77.77,0,0,0,.61-.3c-.23-.1-.19-.55-.5-.55a.65.65,0,0,0-.2.05h-.16c-.24,0-.4-.24-.59-.35a5.35,5.35,0,0,0-2.35-1h-.2c-.89,0-1.52-.61-2.4-.61h-.14c-.64,0-1.31-.62-2-.94h-.1Z" transform="translate(-0.03 0.04)"/><path class="cls-2" d="M47,47.52c-.47,0-1,.53-.79.79.51.7.71,1.55,1.2,2.26a3.71,3.71,0,0,1,.77,1.35c.08.83,1.21.9,1.07,1.75h0c.64,0,.73.68,1.17.94.1.06.16.23.28.23s.08,0,.14-.08a.42.42,0,0,0,.11-.5c-.36-.73-.73-1.46-1.08-2.19A12.81,12.81,0,0,0,49,50.53a19.11,19.11,0,0,1-1.3-2.6c-.17-.36-.54-.24-.73-.41Z" transform="translate(-0.03 0.04)"/><path class="cls-2" d="M21.67,20.64h0c.14,1.49,1.34,2.26,2.19,3.26a15.83,15.83,0,0,0,1.93,1.91c.58.49,1.09,1.19,1.9,1.19a1.62,1.62,0,0,0,.58-.11c-.18-1-5.37-5.89-6.6-6.25Z" transform="translate(-0.03 0.04)"/><path class="cls-2" d="M26.57,17.64h0c-.42.09,0,.45,0,.7a1.41,1.41,0,0,0,0,.29c.35.76.52,1.76,1,2.73.52,1.13,1.18,2.2,1.6,3.37.16.47.63.59.85,1a.12.12,0,0,0,.11.08c.13,0,.3-.16.44-.22a.36.36,0,0,0,.11-.47c-.69-1.44-1.37-2.88-2.07-4.31a16.9,16.9,0,0,0-1.33-2.48c-.18-.25-.34-.68-.57-.68Z" transform="translate(-0.03 0.04)"/><path class="cls-2" d="M20.89,27.6a1.36,1.36,0,0,0-.6.11.69.69,0,0,0-.22.16c-.32.38.74.67,1.15.88a38.07,38.07,0,0,0,3.72,1.58,1.83,1.83,0,0,0,.73.15,1.36,1.36,0,0,0,.87-.31c.77-.62-.75-1.24-1.3-1.37a7.62,7.62,0,0,1-1.42-.22c-.31-.13-.51-.44-.81-.44a.53.53,0,0,0-.34.13h0c-.1,0-.94-.56-1.13-.6a2.73,2.73,0,0,0-.64-.07Z" transform="translate(-0.03 0.04)"/></svg>