<svg id="Layer_1" data-name="Layer 1" xmlns="http://www.w3.org/2000/svg" viewBox="0 0 77.51 72.6"><defs><style>.cls-1{fill:#fed58a;}.cls-1,.cls-2{fill-rule:evenodd;}</style></defs><title>rocet</title><path class="cls-1" d="M578.36,503.34l-1.44,0a13.3,13.3,0,0,0-3,.28,11.49,11.49,0,0,1-2.11.38,5.74,5.74,0,0,0-2.21.6c-1,.47-2.09.59-3.09,1.06a27.3,27.3,0,0,0-4.76,2.42,27.78,27.78,0,0,0-5.23,4.37c-1.19,1.41-2.36,2.87-3.61,4.25a33,33,0,0,0-3.74,5.54,23.31,23.31,0,0,0-2.35,6.18l-.54,2.11c-.07.3-.16.45-.42.45a1.26,1.26,0,0,1-.29,0c-1.21-.29-2.29-1-3.48-1.26s-2.57-.91-3.89-1.28a3.76,3.76,0,0,0-.94-.16c-.65,0-1,.37-1.09,1.31a31.9,31.9,0,0,0-.22,5.35,22.1,22.1,0,0,0,.71,4.85c.32,1.12.42,2.29.82,3.38.67,1.86,1.36,3.72,2.09,5.56a13.8,13.8,0,0,0,1.4,2.86c.57.8,1.08,1.64,1.55,2.46a36.33,36.33,0,0,0,2.2,3.34c.66.9,1.45,1.71,2.12,2.61a20.06,20.06,0,0,0,1.74,1.94c.56.59,1.36,1,1.66,1.8a.48.48,0,0,0,.31.22c.54.12.87.56,1.28.86.94.68,1.59,1.7,2.66,2.28a28.24,28.24,0,0,1,3.37,2.4,22.63,22.63,0,0,0,4.68,2.49c.51.22.91.58,1.39.81a28,28,0,0,0,3.69,1.22,41.91,41.91,0,0,0,5,1.46,7.78,7.78,0,0,0,1.26.17c.72,0,1.43.18,2.16.18h.47c.45,0,.93.15,1.36.15a1.34,1.34,0,0,0,.35,0,6.13,6.13,0,0,1,1.52-.18,9.2,9.2,0,0,1,1.39.11l.23,0c.35,0,.45-.17.56-.42h0c.16,0,.11.43.25.43s.14-.06.27-.24a.55.55,0,0,1,.42-.23.48.48,0,0,1,.36.18.47.47,0,0,0,.33.17.32.32,0,0,0,.18-.06c.56-.4,1.27-.29,1.87-.51,1.26-.46,2.73-.33,3.83-1.3h0a.35.35,0,0,1,.18,0,.43.43,0,0,0,.31.15c.2,0,.37-.18.54-.28a1.82,1.82,0,0,1,1-.36h.29c.29,0,.66-.06.62-.51,0-.3,0-.36.14-.36l.23,0h.08a2.1,2.1,0,0,0,.73-.22c.38-.15.68-.53,1-.6,1-.22,1.6-1,2.42-1.47.58-.33,1.3-.69,1.49-1.49h.1c.5,0,.28-.73.56-.73h0c.89,0,1.24-.73,1.74-1.22a8.18,8.18,0,0,0,1.81-1.91,14,14,0,0,1,1.53-2,32,32,0,0,0,2.48-3.12,32.35,32.35,0,0,0,2.5-4.91c.52-1.41,1.13-2.8,1.69-4.21a19.49,19.49,0,0,0,1.45-4.08c.19-1.16.49-2.3.7-3.45.28-1.56.09-3.1.27-4.63a14.64,14.64,0,0,0-.21-2.21,18.74,18.74,0,0,0-.57-4c-.32-1.31-.56-2.66-1-3.94a33,33,0,0,0-1.4-3.52c-.29-.64-.88-1.17-.8-2,0-.27-.24-.59-.42-.85a28.21,28.21,0,0,1-2-3,28.12,28.12,0,0,0-2.5-3.66c-1-1.35-2.52-2.22-3.66-3.49-.42-.46-1-.75-1.46-1.18s-1.17-.63-1.52-1c-1.21-1.19-2.78-1.65-4.2-2.36a19.47,19.47,0,0,0-3.54-1.58c-1.19-.3-2.29-.95-3.51-1.25a54.81,54.81,0,0,0-6.1-1.07,20,20,0,0,0-2.19-.11Z" transform="translate(-535.95 -503.34)"/><path class="cls-2" d="M565.17,535.51a3,3,0,0,1,2,.7,4.18,4.18,0,0,1,.91,1.19.32.32,0,0,1,0,.23c-.71.91-.79,2.1-1.38,3.06-.1.17-.17.23-.25.23s-.18-.08-.34-.17a4.84,4.84,0,0,0-2.19-.87,2.15,2.15,0,0,0-.72.13l-.17,0c-.25,0-.6-.1-.9-.1h-.06a2.68,2.68,0,0,0-.65.13,10.89,10.89,0,0,0-2.83,1.25c-.53.31-.85.91-1.45,1.19a1.55,1.55,0,0,1-.76.21h-.09a25.72,25.72,0,0,1,2.28-3.23c.5-.6.83-1.32,1.38-1.87a8.92,8.92,0,0,1,2.48-1.71,5.87,5.87,0,0,1,2.65-.39Zm23.91-11.89c.23,0,.43.54.43.88a28.53,28.53,0,0,1-.78,6.5,29.78,29.78,0,0,1-1.38,3.92c-.35,1-1.07,1.76-1.47,2.69s-1.23,1.62-1.52,2.61c0,0-.05.12-.09.13-.83.29-.9,1.21-1.45,1.72a8.1,8.1,0,0,0-1.48,2.12,1.74,1.74,0,0,1-1.19.85c-.5.15-.37.69-.88.91s-.45.53-1,1c-.13.09-.68.17-.25.57l-.06.06c-.65.48-1.35,1.37-2,1.37h-.05a6.22,6.22,0,0,1-2.52-1.46.88.88,0,0,1,.19-1,7.85,7.85,0,0,0,1.94-3,2.32,2.32,0,0,0-1.11-2.86c-.28-.16-.69-.26-.82-.46a.58.58,0,0,0-.5-.31,1.28,1.28,0,0,0-.56.19,9.9,9.9,0,0,0-2.92,2.55,7.77,7.77,0,0,1-1.25,1.26,1.32,1.32,0,0,0-.65-1c-.78-.58-.42-1.09,0-1.62a5.2,5.2,0,0,0,.54-1.4c.5-1.44,1.42-2.65,2-4a9.32,9.32,0,0,1,1.65-2.64c1-1.19,1.74-2.72,3.2-3.56.45-.27.62-.83,1.07-1.21a27.7,27.7,0,0,1,3.74-2.67,14.44,14.44,0,0,1,6.84-1.94h1a8.24,8.24,0,0,0,1.4-.1Zm-16.46,17.82a2.42,2.42,0,0,1,1.6.69c.35.55.13,1-.16,1.55a11.11,11.11,0,0,1-2.35,3,14.3,14.3,0,0,1-3.93,3.29c-.14.07-.2.35-.37.35a.37.37,0,0,1-.22-.11.47.47,0,0,1-.15-.52h0l.54-1.32a21.87,21.87,0,0,1,2.51-4.82,6.35,6.35,0,0,1,2.25-2.09.59.59,0,0,1,.28,0Zm8.71,4.53a.45.45,0,0,1,.2.06c.31.14.63.19.77.62a8.14,8.14,0,0,0,.81,1.47,9.74,9.74,0,0,1,.42,1.91c.27.89-.28,1.64-.19,2.5a2.73,2.73,0,0,1-.47,1.45,13,13,0,0,1-2.62,3.73,17.44,17.44,0,0,1-1.69,1,5.3,5.3,0,0,0,.09-1.53c-.06-.41.18-1,.16-1.51a9.58,9.58,0,0,1-.18-1.56,4,4,0,0,0-.34-1.6,11.39,11.39,0,0,0-1.25-2.49c-.07-.14-.23-.2,0-.36,1-.82,1.94-1.66,2.94-2.44a6.47,6.47,0,0,0,.94-.87c.14-.15.21-.42.44-.42Zm-14.87-3c.1,0,.2.07.29.24a1.8,1.8,0,0,0,.55.55,1.46,1.46,0,0,1,.39,2,17.24,17.24,0,0,0-1.83,5.09.83.83,0,0,0,.8,1,.86.86,0,0,0,.27,0,7.58,7.58,0,0,0,3.3-2.12c.46-.52,1.08-.86,1.52-1.42a.27.27,0,0,1,.24-.1,1.48,1.48,0,0,1,.53.14,4.66,4.66,0,0,1,1.55,1.19c.31.32.78.34,1,.8.14.27.29.38.2.74a14.4,14.4,0,0,1-.7,2.49,1,1,0,0,1-.22.34,6.26,6.26,0,0,0-1.38,1.84,4.84,4.84,0,0,1-1.54,1.28,11.08,11.08,0,0,0-1.46,1,6.67,6.67,0,0,1-2.42,1.15,1.68,1.68,0,0,1-.58.11c-.65,0-.92-.53-.94-1.31a12.53,12.53,0,0,0-.26-2.67c-.1-.42,0-1-.54-1.18a.79.79,0,0,0-.25-.05c-.42,0-.63.48-.87.73a18.6,18.6,0,0,0-2.9,3.11c-.09.15-.23.45-.47.45l-.14,0c-.3-.13,0-.46-.09-.66a3.29,3.29,0,0,1-.22-1.67c0-1.14,0-2.3,0-3.43a14.81,14.81,0,0,1,.57-3.44,7.67,7.67,0,0,1,1.41-2.94c.45-.63,1.18-1,1.49-1.7a.44.44,0,0,1,.37-.28,4.24,4.24,0,0,0,2-1,.57.57,0,0,1,.34-.18Zm20.68-20.44h-.43a7,7,0,0,0-2.74.38,26.82,26.82,0,0,1-3.23,1.11,11.15,11.15,0,0,0-2.55,1.42,16.88,16.88,0,0,0-3.46,2.79c-.89,1-2,2-2.8,3.08a19.28,19.28,0,0,0-2.78,4.26c-.11.3-.25.46-.43.46s-.31-.11-.5-.34a4,4,0,0,0-1.94-1.31,2.82,2.82,0,0,0-.85-.12c-.43,0-.86.07-1.28.07l-.39,0h-.28a4.6,4.6,0,0,0-2.08.73,7.29,7.29,0,0,0-2.49,2.18c-.76,1-1.58,2-2.32,3.09a11.33,11.33,0,0,0-1.64,3.37,3.56,3.56,0,0,0-.28,1.87c.07.29.22.49.4.49a.34.34,0,0,0,.25-.15c.95-1.14,2.15-2,3.15-3.06.78-.82,2-.81,2.65-1.67a1.54,1.54,0,0,0,.65.13,5,5,0,0,0,1.47-.36,1.37,1.37,0,0,1,.39-.06c.6,0,1.06.45,1.63.55.4.07.15.62.19,1s0,.26-.12.26-.27-.11-.32-.11h0a3.88,3.88,0,0,0-2.56,1.42,9.81,9.81,0,0,0-2.5,3.94,14.94,14.94,0,0,0-.88,4.58,26.52,26.52,0,0,0,0,3.09,12.81,12.81,0,0,0,.15,2.15,5.47,5.47,0,0,1,.3,1.69c0,.58.58.75.76,1.2a.06.06,0,0,0,.06,0s.13-.08.21-.21c.22-.38.28-.84.66-1.14a18.25,18.25,0,0,0,3-3.28.5.5,0,0,1,.41-.22l.15,0c.22.06.06.26.07.41a26.93,26.93,0,0,1,.25,2.85,1.08,1.08,0,0,0,.44.85,2.29,2.29,0,0,0,1.41.4,2.2,2.2,0,0,0,1.2-.3.65.65,0,0,1,.35-.13h.21a3,3,0,0,0,1.76-.8c.15-.11.28-.33.44-.35a5.68,5.68,0,0,0,2.42-1.48,5.29,5.29,0,0,0,1-1.29,13.22,13.22,0,0,0,1.31-2c.4-.79.71-1.61,1.14-2.42a15.74,15.74,0,0,1,.58,2.32c0,.41.66.51.41,1a2.49,2.49,0,0,0,0,1.55c0,.28.29.56.16.8-.56,1-.7,2.34-1.81,3.09a.94.94,0,0,0-.31,1.22.53.53,0,0,0,.46.25,1.62,1.62,0,0,0,.72-.24c.18-.1.35-.22.55-.31a6.42,6.42,0,0,0,2.08-1.51c.73-.83,2.1-1.06,2.3-2.36.93-.1,1-1,1.3-1.57.17-.33.64-.25.52-.35-.39-.31.2-.53,0-.77.46-.15-.26-.67.23-.8s.76-.26.4-.81c0,0-.31-.6.12-.74s.39-.13.35-.4a2.14,2.14,0,0,1-.12-.59,4.88,4.88,0,0,0-.1-2.67,14.86,14.86,0,0,0-1.56-2.95c-.35-.49-.93-1-.24-1.67a3.94,3.94,0,0,0,1-1.24c.4-.88,1.26-1.49,1.72-2.28a50.2,50.2,0,0,0,3.06-5.46,23,23,0,0,0,1.72-5.65,16,16,0,0,0-.1-6.24.58.58,0,0,0-.66-.53c-.81,0-1.62-.1-2.42-.1Z" transform="translate(-535.95 -503.34)"/><path class="cls-2" d="M590.57,538.38c-.07,1.2,0,1.19.78,1.93a6.59,6.59,0,0,0,1.4.71,21,21,0,0,0,2.43,1.31h.1c.1,0,.21,0,.29,0a.16.16,0,0,1,.16.11c.49,1,1.84.74,2.41,1.64a2,2,0,0,1,.34,0,18.07,18.07,0,0,1,2.06.47h.13c.13,0,.28,0,.33-.09.18-.23-.13-.31-.23-.42a14.14,14.14,0,0,0-3.61-2.31c-1.26-.65-2.47-1.41-3.73-2.07a9.08,9.08,0,0,0-2.86-1.23Z" transform="translate(-535.95 -503.34)"/><path class="cls-2" d="M600.88,533l-.22,0a17.33,17.33,0,0,0-4.8,1.19,7.67,7.67,0,0,1-1.26.39c-.79.47-1.83.36-2.55.93-.26.2-.33.73-.51,1.11-.08.2.1.32.29.32h.06a12.41,12.41,0,0,0,3.33-.93c.83-.36,1.7-.59,2.54-.88a31.51,31.51,0,0,0,3-1.11c.28-.13.64-.47.65-.73s-.26-.31-.52-.31Z" transform="translate(-535.95 -503.34)"/><path class="cls-2" d="M589.37,541.14a.46.46,0,0,0-.5.55,2.52,2.52,0,0,0,.42,1.18,29.38,29.38,0,0,0,2.12,2.63c.6.61,1.12,1.32,1.73,1.94.35.36.73.67,1.09,1a.31.31,0,0,0,.22.11.24.24,0,0,0,.13,0c.06,0,.08-.12.12-.18s-.1-.1-.11-.15a11.43,11.43,0,0,0-1.84-3.42c-.4-.65-1-1.15-1.38-1.82s-.76-1.63-1.82-1.81l-.18,0Z" transform="translate(-535.95 -503.34)"/><path class="cls-2" d="M563.44,523.74a.2.2,0,0,0-.18.11c-.12.2.13.24.21.35a20.33,20.33,0,0,0,3,3c.71.63,1.44,1.25,2.18,1.83a.73.73,0,0,0,.44.18.43.43,0,0,0,.19,0c.25-.11.09-.41.26-.56a2.43,2.43,0,0,0-.14-.48,7,7,0,0,0-1.4-1.61c-.25-.21-.39-.63-.81-.63a.52.52,0,0,0-.17,0h0c-.11,0-.2-.21-.22-.38s.12-.2-.08-.2h-.13c-.19,0-.2,0-.24-.12s-.11-.33-.18-.34c-.93-.11-1.52-1-2.42-1.13a1.11,1.11,0,0,0-.25,0Z" transform="translate(-535.95 -503.34)"/><path class="cls-2" d="M568.54,520.38h0c0,2.51,1,4.65,1.81,6.83a.84.84,0,0,0,.74.61l.18,0c.5-.12.3-.52.26-.85a2.65,2.65,0,0,0-.09-.61c-.47-1.47-1.09-2.87-1.6-4.32-.2-.57-.43-1.41-1.3-1.64Z" transform="translate(-535.95 -503.34)"/><path class="cls-2" d="M562.46,528.78a.69.69,0,0,0-.4.14,6,6,0,0,0,2.72,1.89,7,7,0,0,0,2.46.93l.3,0c.44-.06.88.06.8-.52-.05-.42-.19-.9-.76-.9h-.15a1.77,1.77,0,0,1-.32.05.44.44,0,0,1-.24-.07,11.69,11.69,0,0,0-3.54-1.21c-.29-.05-.55-.3-.87-.3Z" transform="translate(-535.95 -503.34)"/><path class="cls-2" d="M581.59,530.32a1,1,0,0,1,1,.52c.89,1.58,1.43,2.81,0,4.6a2.32,2.32,0,0,1-1.85,1h-.16c-1.08-.08-1.63-.76-2-1.79s.1-1.89-.29-2.78c.59-.23.29-1,.81-1.3a2.2,2.2,0,0,1,1.15-.28l.54,0h0c.27,0,.56,0,.83,0Zm-.32-1.18a5.29,5.29,0,0,0-.67.05,3.47,3.47,0,0,0-2.51,1.33,5.56,5.56,0,0,0-.45,4.53,3.36,3.36,0,0,0,3.17,2.49,2.17,2.17,0,0,0,.76-.13c.62-.22,1.09-.94,1.64-1.2.78-.37.37-1.47,1.28-1.56-.23-.54.25-1,.13-1.64a2.66,2.66,0,0,0-.23-1c-.5-1.86-1.53-2.83-3.12-2.83Z" transform="translate(-535.95 -503.34)"/></svg>