<svg id="Layer_1" data-name="Layer 1" xmlns="http://www.w3.org/2000/svg" viewBox="0 0 50.82 47.15"><defs><style>.cls-1{fill:#fed58a;}.cls-1,.cls-2{fill-rule:evenodd;}</style></defs><title>scoop</title><path class="cls-1" d="M27.33,1.44h-.11a1.67,1.67,0,0,1-.73.14c-.42,0-.84-.1-1.26-.12s-.95,0-1.42,0h-.88a19,19,0,0,0-2.6.32,20.7,20.7,0,0,0-2.71.45,17,17,0,0,0-2.09.69A22.5,22.5,0,0,0,12.59,4.3,20.38,20.38,0,0,0,8.26,7.46c-.3.31-.64.57-.92.9-.52.6-1,1.22-1.49,1.84a14.5,14.5,0,0,0-1.42,2.23c-.38.73-.67,1.5-1,2.25-.16.4-.16,1-.44,1.18-.48.36,0,.74-.21,1.08s-.35.42-.4.72c-.22,1.25-.65,2.44-.81,3.7a2.53,2.53,0,0,0,0,1.54.39.39,0,0,1-.12.41.46.46,0,0,0-.09.51c.12.41-.06.84.09,1.26a1.08,1.08,0,0,1,.07.56,4,4,0,0,0,.13,2.1,5.61,5.61,0,0,1,.24,1,18.31,18.31,0,0,0,.7,3.73,12.58,12.58,0,0,0,.55,1.6c.16.38.29.85.47,1.24a26,26,0,0,0,1.78,3.23,17.86,17.86,0,0,0,2,2.26c.71.78,1.54,1.49,2.28,2.25A19.57,19.57,0,0,0,13,45.47a3.78,3.78,0,0,0,.92.56,38.4,38.4,0,0,0,3.74,1.43c1,.21,2,.66,3.06.82a25.5,25.5,0,0,0,3.26.31h.36c.87,0,1.73-.07,2.59-.07h.47a10.5,10.5,0,0,0,2.87-.71c1-.29,2-.79,3-1,.62-.15,1.07-.56,1.66-.74A3,3,0,0,0,36.56,45c.41-.61,1.37-.59,1.61-1.4,0-.06.12-.09.19-.13.25-.16.93.11.63-.62h0a2.34,2.34,0,0,0,1.17-1.15.12.12,0,0,1,.14-.1h.18a.17.17,0,0,0,.16-.12,11,11,0,0,1,1.23-1.8c.11-.17.09-.37.23-.54a9.47,9.47,0,0,0,1.29-2.22,4.44,4.44,0,0,1,.89-1.79.25.25,0,0,1,.08-.21A12.57,12.57,0,0,0,45,32.45c.28-1,.41-2,.59-3A10.29,10.29,0,0,0,46,27.11c0-.84,0-1.68-.13-2.52a4.2,4.2,0,0,1-.18-1c.08-.61-.47-1.15-.13-1.76-.39-.31-.18-.82-.36-1.16s0-.34.12-.47a.72.72,0,0,1,.53-.26h.36c.43,0,.84-.18,1.28-.18h.64a1.19,1.19,0,0,0,.46-.06,2.11,2.11,0,0,1,.79-.12h.4a1.27,1.27,0,0,0,.39,0h.07c.64,0,1.12-.21,1.62-.21H52c.14,0,.12-.12.08-.24a17,17,0,0,0-2.34-4.71A18.87,18.87,0,0,0,47.83,12a22.64,22.64,0,0,0-3-2.79c-1.1-.73-2-1.67-3.17-2.37-.92-.57-1.83-1.16-2.76-1.72-.39-.24-.84-.28-1.21-.51a3.35,3.35,0,0,0-1-.41c-.31-.09-.53-.34-.86-.45A4.94,4.94,0,0,1,34,3.11a1.37,1.37,0,0,0-.93-.32h-.31c-.35,0-.52-.36-.89-.36h-.19c-.46,0-.89-.35-1.36-.42-.81-.12-1.64-.18-2.45-.36-.2,0-.4-.2-.59-.2Z" transform="translate(-1.32 -1.44)"/><path class="cls-2" d="M29.93,13.14c.23,0,.29.12.34.28.17.56.33,1.12.53,1.67a17.5,17.5,0,0,0,.84,2.18c.24.46.34,1,.55,1.42.39.87.6,1.81.93,2.71s.72,1.83,1.11,2.73c.08.18.06.24-.08.29-.58.21-1.11.52-1.69.73s-1.08.62-1.7.79a1,1,0,0,1-.34.06c-.22,0-.28-.13-.24-.49a1.25,1.25,0,0,0-.42-1.15c-.43-.39-.2-1-.5-1.48-.57-.83-.57-1.89-1.11-2.75-.32-.49-.25-1.18-.61-1.68s-.39-1.31-.82-1.88a.88.88,0,0,1-.14-.61c.09-.31-.17-.46-.2-.69s-.46-.13-.24-.29.34-.53.65-.55A2.44,2.44,0,0,0,28,14a2.12,2.12,0,0,1,.86-.43c.42,0,.71-.39,1-.41Zm-4,3.5c.09,0,.13.08.17.26a28.24,28.24,0,0,0,1.34,3.88c.41.94.71,1.93,1.06,2.89.07.17.09.23-.12.32-.58.24-1.16.47-1.76.66s-1.47.57-2.22.81a11,11,0,0,1-1.57.59,1.51,1.51,0,0,0-.52.3.78.78,0,0,1-.39.15c-.17,0-.27-.16-.32-.49a1.78,1.78,0,0,0-.44-1c-.18-.19-.22-.53-.34-.73-.48-.79-.59-1.71-1-2.49a1.81,1.81,0,0,1-.3-.84,1.84,1.84,0,0,0-.32-.81h0c.39-.2.82-.3,1-.72,0-.11.18-.11.29-.13a1.78,1.78,0,0,0,1.09-.62c.21-.29.6-.14.9-.31,1-.59,2.14-1.07,3.21-1.63a.58.58,0,0,1,.22-.08Zm-7.22,5c.07,0,.16.12.18.18.27,1.09.86,2.05,1.22,3.11.11.32.15.68.48.86-.1.13,0,.31-.1.31h-.1c-.25,0-.42.3-.65.3a.37.37,0,0,1-.2-.07H19.4c-.24.51-.85.16-1.16.51A.36.36,0,0,1,18,27h-.3a.52.52,0,0,0-.54.33,3,3,0,0,1-1.28.37h-.08a.46.46,0,0,1-.13-.18c-.34-.89-.66-1.79-1-2.68-.11-.27,0-.32.16-.51.33-.41.79-.52,1.16-.79a11.82,11.82,0,0,0,1.53-1c.33-.32.91-.26,1.21-.72h0ZM24,26.38c.07,0,.12,0,.12.19a5,5,0,0,1,0,1.64,4.57,4.57,0,0,0,0,1.28c0,.29-.06.39-.4.49a4.78,4.78,0,0,0-1.29.32.64.64,0,0,1-.3.11c-.71,0-.68-2-.64-2.52h0a.17.17,0,0,1,0-.1.17.17,0,0,1,0-.1l.09-.07c.42-.2.86-.39,1.27-.61.15-.07,1-.36,1-.52a.38.38,0,0,1,.23-.11ZM13,23.86h.07c.54,0,.61.45.72.73.41,1.15.83,2.29,1.29,3.41a4.48,4.48,0,0,0,.38,1c.17.26,0,.57-.05.88s-.45.31-.59.45c-.35.35-.81.15-1.14.4a.51.51,0,0,1-.31.13.41.41,0,0,1-.39-.39,4.7,4.7,0,0,0-.43-1.07c-.31-.82-.79-1.56-1.08-2.41-.19-.56-.51-1.12-.72-1.7-.07-.17-.15-.33.11-.45.71-.3,1.41-.64,2.11-.95ZM30.3,12h-.13c-.55.16-1.06.46-1.59.67a17.91,17.91,0,0,1-1.94.9,1.36,1.36,0,0,0-1.1,1.58,1.46,1.46,0,0,0,.05.2c.19.42,0,.57-.3.67-.56.22-1.09.5-1.63.74-.9.4-1.72,1-2.64,1.32a11.08,11.08,0,0,0-1.54.87c-.66.38-1.33.84-1,1.81a.25.25,0,0,1-.2.23c-.52.08-.85.52-1.33.69s-.9.83-1.5,1.09a1.71,1.71,0,0,0-.7.38.44.44,0,0,1-.33.21.56.56,0,0,1-.4-.28c-.17-.21-.32-.47-.57-.47h-.16c-.46.17-.73.56-1.18.65s-1,.46-1.56.6A.87.87,0,0,0,9.84,25a13.88,13.88,0,0,1,.53,1.4c.3,1,.88,1.87,1.27,2.84.3.77.75,1.48,1.09,2.24.12.25.27.37.46.37a.54.54,0,0,0,.25-.06,14.71,14.71,0,0,0,1.45-.52c.22-.13.37-.32.58-.46a9.25,9.25,0,0,1,1-.49.4.4,0,0,0,.15-.1c.23-.27-.09-1.05-.2-1.32s-.16-.32.15-.51a11.69,11.69,0,0,1,2.26-1c.39-.12.78-.25,1.18-.35h.14c.45,0,.27.68.28,1a13.9,13.9,0,0,0,.31,2.48.67.67,0,0,0,.62.52h.43a1.36,1.36,0,0,0,.63-.12,1,1,0,0,1,.34-.1c.17,0,.16.18.12.44-.1.78.15,1.61-.61,2.25a19.08,19.08,0,0,0-1.92,2,21.79,21.79,0,0,0-1.53,1.66,11.55,11.55,0,0,1-1.35,1.53c-.45.47-.75,1-1.18,1.49-.2.22,0,.37.07.53a.37.37,0,0,0,.3.16h.18c.55-.15.8-.67,1.07-1,.73-1,1.65-1.78,2.42-2.72a30,30,0,0,0,2.11-2.26.26.26,0,0,1,.21-.12h.07c.15,0,.13.16.14.27.05.71,0,1.42,0,2.14.08,1.18.16,2.37.17,3.55a9.57,9.57,0,0,0,.28,1.92.5.5,0,0,0,.47.46.56.56,0,0,0,.4-.2,1.15,1.15,0,0,0,.35-.84c0-.43-.07-.86-.11-1.29-.13-1.25-.15-2.51-.21-3.77a8.06,8.06,0,0,0-.12-2.08.34.34,0,0,1,.05-.21.66.66,0,0,1,.2.06,7.35,7.35,0,0,1,1.09,1.14l1.35,1.52c.46.52,1.13,1.14,1.7,1.69s.8,1,1.48,1.07h0c.23,0,.45-.1.39-.35s-.11-.8-.51-1A2.06,2.06,0,0,1,29,38a1.58,1.58,0,0,0-.52-.51,11.94,11.94,0,0,1-1.89-2,29.29,29.29,0,0,1-2-2.19c-.23-.27-.67-.37-.67-.87,0-.34.06-.69.06-1s-.07-.37-.08-.55-.11-.18.13-.31.38,0,.55-.18c.8-.62.48-2.29.35-3.12a4.18,4.18,0,0,0,0-1c-.08-.36.4-.29.68-.4a8.06,8.06,0,0,1,1.73-.47c.19,0,.42,0,.51-.19.22-.37.6-.28.91-.37h.1c.09,0,.19,0,.17.12-.1.47.36.69.43,1.1,0,.18.15.64.52.64h.13a10,10,0,0,0,2.26-.75c.55-.28,1.19-.42,1.73-.74.34-.2,1.07-.12.86-.89a1,1,0,0,0-.23-.82.52.52,0,0,1,0-.63,3.79,3.79,0,0,0,.47-1.07,8.52,8.52,0,0,0,.11-3.41,6.55,6.55,0,0,0-.8-2,6.62,6.62,0,0,0-1.14-1.49,3.58,3.58,0,0,0-1.54-1c-.57-.12-1-.28-1.06-.89a1.5,1.5,0,0,0-.09-.42c-.11-.25-.23-.59-.52-.59Z" transform="translate(-1.32 -1.44)"/><path class="cls-2" d="M17.08,9.6s-.07,0-.15.13c-.3.28-.1.6-.09.86a6.59,6.59,0,0,0,.3,1.4,8.88,8.88,0,0,0,.67,2,5.58,5.58,0,0,1,.36,1.27,5.23,5.23,0,0,0,.12.54c.17.64.38.43.89.63h0c.1,0,0-.29.06-.42a2.32,2.32,0,0,0-.34-1.36c-.22-.66-.42-1.34-.62-2a12.81,12.81,0,0,0-1.11-2.93c-.06-.09-.09-.13-.12-.13Z" transform="translate(-1.32 -1.44)"/><path class="cls-2" d="M12.43,11.52h0c.66,1,1.21,1.88,1.81,2.72a24.09,24.09,0,0,0,1.63,2c.29.31.48.73.9.92a.72.72,0,0,0,.25.07c.12,0,.19-.09.25-.31a.75.75,0,0,0-.1-.65c-.38-.64-1-1.08-1.42-1.67A17.61,17.61,0,0,0,14,12.52a3.31,3.31,0,0,0-1.54-1Z" transform="translate(-1.32 -1.44)"/><path class="cls-2" d="M37.42,25.44a.7.7,0,0,0-.64.3c-.11.26.08.44.3.62.74.58,1.58,1,2.36,1.53a4.18,4.18,0,0,0,2.23.79h0a2.5,2.5,0,0,0-.39-.67,3.5,3.5,0,0,0-1-.79c-.42-.28-.82-.59-1.23-.86a8.4,8.4,0,0,1-1.31-.81.56.56,0,0,0-.37-.11Z" transform="translate(-1.32 -1.44)"/><path class="cls-2" d="M10.78,15.84h-.39a16.1,16.1,0,0,0,6,3.08.8.8,0,0,0-.46-.78c-1.15-.62-2.3-1.24-3.5-1.75a4,4,0,0,0-1.64-.54Z" transform="translate(-1.32 -1.44)"/><path class="cls-2" d="M35.73,26.76a.29.29,0,0,0-.13,0,.53.53,0,0,0-.36.54,15.18,15.18,0,0,0,.64,1.49A11.66,11.66,0,0,0,37.31,31c.13.15.21.37.39.37h.14c.27-.13.2-.41.1-.64-.46-1.09-1.12-2.09-1.54-3.21-.07-.2-.09-.45-.34-.55s-.18-.25-.33-.25Z" transform="translate(-1.32 -1.44)"/><path class="cls-2" d="M38.07,23.28a2.85,2.85,0,0,0-.71.12c-.27.09-.19.36-.26.54s.22.24.34.26a21.56,21.56,0,0,0,3.39.64h.1c.08,0,.17-.1.24-.1h.15a.3.3,0,0,0,.32-.2c.06-.22-.22-.27-.36-.3-.31-.08-.49-.35-.89-.35h0c-.32,0-.65-.3-1-.3h-.17c-.07,0-.14-.06-.22-.1a1.76,1.76,0,0,0-.89-.25Z" transform="translate(-1.32 -1.44)"/></svg>