<svg id="Layer_1" data-name="Layer 1" xmlns="http://www.w3.org/2000/svg" viewBox="0 0 21.27 14.47"><defs><style>.cls-1{fill:#fddb3b;}</style></defs><title>تيقن1-logo</title><path class="cls-1" d="M399.1,253.73a4.74,4.74,0,0,0-1.49-2.48,6.6,6.6,0,0,0-4.48-1.46,8.39,8.39,0,0,0-5.9,2.15,6.87,6.87,0,0,0-1.83,2.7l7.17,4Z" transform="translate(-384.87 -248.42)"/><path class="cls-1" d="M392.38,262.15l-7-7.31a8.56,8.56,0,0,0-.47,2.8,4.86,4.86,0,0,0,1.64,3.79A6.4,6.4,0,0,0,391,262.9a8.53,8.53,0,0,0,6-2.15,7.26,7.26,0,0,0,2.35-5.47Z" transform="translate(-384.87 -248.42)"/><path class="cls-1" d="M399.27,255.28l6.87-6.86-7,5.31a5.61,5.61,0,0,1,.18,1.38C399.28,255.17,399.27,255.22,399.27,255.28Z" transform="translate(-384.87 -248.42)"/><path class="cls-1" d="M384.87,254.35l.47.49.06-.2Z" transform="translate(-384.87 -248.42)"/></svg>