<svg id="Layer_1" data-name="Layer 1" xmlns="http://www.w3.org/2000/svg" viewBox="0 0 246.1 88.09"><defs><style>.cls-1{fill:#f5f3e5;}.cls-2{fill:#fddb3b;}</style></defs><title>sure3</title><path class="cls-1" d="M494.75,235.72a6.43,6.43,0,0,0,4.44,1.47,8.49,8.49,0,0,0,6-2.15,7.26,7.26,0,0,0,2.35-5.63,4.86,4.86,0,0,0-1.67-3.86,6.55,6.55,0,0,0-4.47-1.47,8.45,8.45,0,0,0-5.91,2.15,7.36,7.36,0,0,0-2.35,5.7A4.84,4.84,0,0,0,494.75,235.72Z" transform="translate(-276.86 -211.72)"/><path class="cls-2" d="M466.79,235.93a5.06,5.06,0,0,0,2.7.58c.54,0,1.34,0,2.39-.07s2.19-.1,3.45-.17,2.46-.12,3.65-.17,2.18-.07,3-.07a25.77,25.77,0,0,1,2.8.14,5.53,5.53,0,0,1,1.64.34,8.68,8.68,0,0,0,.72-2,8.3,8.3,0,0,0,.17-1.64c0-1.32-.34-2.16-1-2.53a9.7,9.7,0,0,0-4-.54l-10.73.27c-.86,0-1.67,0-2.42-.1a7.31,7.31,0,0,1-1.88-.38,9.92,9.92,0,0,0-1,1.68,5.06,5.06,0,0,0-.41,2.22A2.69,2.69,0,0,0,466.79,235.93Z" transform="translate(-276.86 -211.72)"/><path class="cls-2" d="M500.59,218a5.21,5.21,0,0,0,2.7.58c.55,0,1.34,0,2.39-.07l3.45-.17c1.25-.07,2.47-.13,3.65-.17s2.19-.07,3-.07a25.9,25.9,0,0,1,2.8.14,5.61,5.61,0,0,1,1.64.34,9.47,9.47,0,0,0,.71-2,7.68,7.68,0,0,0,.17-1.64c0-1.32-.34-2.16-1-2.53a9.59,9.59,0,0,0-4-.55l-10.72.28c-.87,0-1.68,0-2.43-.1a7.67,7.67,0,0,1-1.87-.38,9.92,9.92,0,0,0-1,1.67,5.21,5.21,0,0,0-.41,2.22A2.69,2.69,0,0,0,500.59,218Z" transform="translate(-276.86 -211.72)"/><path class="cls-1" d="M463.85,288.17a6.51,6.51,0,0,0-4.47-1.47,8.45,8.45,0,0,0-5.91,2.15,7.37,7.37,0,0,0-2.35,5.71,4.84,4.84,0,0,0,1.64,3.79,6.44,6.44,0,0,0,4.44,1.46,8.48,8.48,0,0,0,6-2.15,7.26,7.26,0,0,0,2.36-5.63A4.89,4.89,0,0,0,463.85,288.17Z" transform="translate(-276.86 -211.72)"/><path class="cls-1" d="M510.9,226.23a7.36,7.36,0,0,0-2.35,5.7,4.82,4.82,0,0,0,1.64,3.79,6.4,6.4,0,0,0,4.44,1.47,8.48,8.48,0,0,0,6-2.15,7.26,7.26,0,0,0,2.36-5.63,4.87,4.87,0,0,0-1.68-3.86,6.51,6.51,0,0,0-4.47-1.47A8.46,8.46,0,0,0,510.9,226.23Z" transform="translate(-276.86 -211.72)"/><path class="cls-1" d="M479.29,288.17a6.55,6.55,0,0,0-4.48-1.47,8.44,8.44,0,0,0-5.9,2.15,7.38,7.38,0,0,0-2.36,5.71,4.88,4.88,0,0,0,1.64,3.79,6.44,6.44,0,0,0,4.44,1.46,8.48,8.48,0,0,0,6-2.15A7.23,7.23,0,0,0,481,292,4.91,4.91,0,0,0,479.29,288.17Z" transform="translate(-276.86 -211.72)"/><path class="cls-1" d="M430.7,230.6a6.4,6.4,0,0,0,4.44,1.47,8.53,8.53,0,0,0,6-2.15,7.26,7.26,0,0,0,2.36-5.63,4.9,4.9,0,0,0-1.67-3.86,6.55,6.55,0,0,0-4.48-1.47,8.42,8.42,0,0,0-5.9,2.15,7.32,7.32,0,0,0-2.36,5.7A4.86,4.86,0,0,0,430.7,230.6Z" transform="translate(-276.86 -211.72)"/><path class="cls-1" d="M278.94,288.07a17,17,0,0,0,3.79,5.12,18.62,18.62,0,0,0,6.77,3.86,32.62,32.62,0,0,0,10.58,1.47,35.28,35.28,0,0,0,11.85-1.78,25.45,25.45,0,0,0,8.3-4.71,27.47,27.47,0,0,0,5.46-6.45,36.57,36.57,0,0,0,3.31-7.07l.27-.82h.55a5.48,5.48,0,0,0,1,1.81q1.55,1.74,4.89,1.74H436l2.33-3.55H439a5.48,5.48,0,0,0,1,1.81q1.53,1.74,4.88,1.74h24.93l2.32-3.55h.58a5.32,5.32,0,0,0,1,1.81q1.53,1.74,4.88,1.74h25.88l5.46-8.33q.34-2.87.89-5.84t1.23-5.84c.45-1.91.89-3.72,1.3-5.43s.74-3.24,1-4.61a19.23,19.23,0,0,0,.37-3.34,4.28,4.28,0,0,0-1.23-3.32,5.77,5.77,0,0,0-4-1.12,17.69,17.69,0,0,0-6.76,1.47,32.75,32.75,0,0,0-6.62,3.65l3.84,5.85-.12.5c-.3,1.18-.6,2.44-.92,3.76s-.63,2.7-.92,4.16-.57,2.94-.82,4.44c-.17,1-.32,2-.45,3H481.51a4.45,4.45,0,0,1-3.45-1.23,5.31,5.31,0,0,1-1.13-3.69,18.47,18.47,0,0,1,.51-4.13c.34-1.48.76-3,1.23-4.51s.89-3,1.23-4.47a17.85,17.85,0,0,0,.51-4,5.22,5.22,0,0,0-1.12-3.59,4.89,4.89,0,0,0-3.79-1.26,18.19,18.19,0,0,0-5.23.89,35,35,0,0,0-5.9,2.45,6.72,6.72,0,0,1,1.05,2.57,16.31,16.31,0,0,1,.38,3.58,17.48,17.48,0,0,1-.31,3.38q-.3,1.6-.75,3.18c-.3,1-.59,2.11-.89,3.21s-.54,2.25-.75,3.48a25.14,25.14,0,0,0-.3,4v.14H447.57a4.45,4.45,0,0,1-3.45-1.23,5.1,5.1,0,0,1-1.13-3.56,15.48,15.48,0,0,1,.24-2.52c.13-.81.28-1.59.43-2.37s.37-1.62.56-2.41q.54-2.33,1-4.41c.3-1.39.53-2.63.72-3.72a17.3,17.3,0,0,0,.27-2.73,9.76,9.76,0,0,0-1.77-2.22,23.35,23.35,0,0,0-3.9-3.07,23.78,23.78,0,0,0-6-2.7,27.29,27.29,0,0,0-8.06-1.09,25.9,25.9,0,0,0-10.38,2,22.51,22.51,0,0,0-7.92,5.7,25.66,25.66,0,0,0-5,8.68,33.16,33.16,0,0,0-1.74,11,32.81,32.81,0,0,0,.21,3.79c0,.3.07.57.11.86H337a4.35,4.35,0,0,1-3.42-1.23,5.19,5.19,0,0,1-1.09-3.56,9.79,9.79,0,0,1,.09-1.25c.25-1.21.53-2.58.83-4.11q1-5,2.56-12.94a3.88,3.88,0,0,0-1-3c-.66-.56-1.9-.85-3.72-.85a17.6,17.6,0,0,0-7.14,1.4,37.4,37.4,0,0,0-6.31,3.59l3.3,4.71-3.37,16.8a34.82,34.82,0,0,1-3.65,10.62,13.33,13.33,0,0,1-5.78,5.49,19.81,19.81,0,0,1-8.53,1.64q-5.06,0-7.24-1.84t-2.19-7.17a14.56,14.56,0,0,1,1.13-6.32,16.18,16.18,0,0,1,3.11-4.27,6,6,0,0,0-2.29-1.67,10.91,10.91,0,0,0-4.75-.85,10.52,10.52,0,0,0-6,1.6,9.38,9.38,0,0,0-3.48,4.51,18.72,18.72,0,0,0-1.13,6.79,29.55,29.55,0,0,0,.41,4.44A20.19,20.19,0,0,0,278.94,288.07Zm137.32-31.18a13.29,13.29,0,0,1,3.92-5.63,9.24,9.24,0,0,1,6-2,18.48,18.48,0,0,1,3.72.45,8,8,0,0,1,2.27.79c-.13.52-.25,1.07-.39,1.66-.32,1.39-.66,2.91-1,4.55s-.73,3.32-1.1,5-.68,3.46-.95,5.19c-.19,1.17-.35,2.28-.49,3.35H415.31c0-.15-.05-.29-.08-.45-.11-.61-.2-1.31-.27-2.08s-.1-1.59-.1-2.46A22.79,22.79,0,0,1,416.26,256.89Z" transform="translate(-276.86 -211.72)"/><path class="cls-1" d="M415.26,230.6a6.43,6.43,0,0,0,4.44,1.47,8.54,8.54,0,0,0,6-2.15,7.26,7.26,0,0,0,2.36-5.63,4.87,4.87,0,0,0-1.68-3.86,6.51,6.51,0,0,0-4.47-1.47,8.45,8.45,0,0,0-5.91,2.15,7.35,7.35,0,0,0-2.35,5.7A4.85,4.85,0,0,0,415.26,230.6Z" transform="translate(-276.86 -211.72)"/><text x="-276.86" y="-211.72"/><path class="cls-2" d="M306.88,246.49a4.73,4.73,0,0,0-1.5-2.47,6.51,6.51,0,0,0-4.47-1.47A8.45,8.45,0,0,0,295,244.7a7.06,7.06,0,0,0-1.82,2.71l7.17,4Z" transform="translate(-276.86 -211.72)"/><path class="cls-2" d="M300.15,254.92l-7-7.32a8.6,8.6,0,0,0-.47,2.8,4.83,4.83,0,0,0,1.64,3.79,6.4,6.4,0,0,0,4.44,1.47,8.53,8.53,0,0,0,6-2.15,7.23,7.23,0,0,0,2.34-5.46Z" transform="translate(-276.86 -211.72)"/><path class="cls-2" d="M307,248.05l6.88-6.86-7,5.3a5.63,5.63,0,0,1,.18,1.39C307.06,247.94,307,248,307,248.05Z" transform="translate(-276.86 -211.72)"/><path class="cls-2" d="M292.65,247.11l.47.49a1.39,1.39,0,0,1,.06-.19Z" transform="translate(-276.86 -211.72)"/></svg>