<svg id="Layer_1" data-name="Layer 1" xmlns="http://www.w3.org/2000/svg" viewBox="0 0 70.32 73.09"><defs><style>.cls-1{fill:#feb8b3;}.cls-1,.cls-2{fill-rule:evenodd;}</style></defs><title>trans</title><path class="cls-1" d="M19.27,0A2.57,2.57,0,0,0,18,.51c-1.17.72-2.32,1.48-3.41,2.31a15.58,15.58,0,0,0-2.8,2.52c-.67.83-1.39,1.65-2.05,2.51S8.56,9.36,8,10.15c-.92,1.35-1.75,2.76-2.58,4.17A12.18,12.18,0,0,0,4.08,17a25,25,0,0,1-1,2.63c-.51,1.23-.93,2.47-1.32,3.74s-.57,2.69-1,4C.49,28.47.53,29.56.3,30.62a10.64,10.64,0,0,0-.12,2.76c.07,1.08-.39,2.15-.15,3.25S-.21,38.86,0,40a12.13,12.13,0,0,1,.08,2A16,16,0,0,0,1,45.85a9,9,0,0,1,.21,1.63A15.89,15.89,0,0,0,2.37,51c.54,1.35,1,2.75,1.6,4.09a24.15,24.15,0,0,0,2.31,4c.69,1,1.4,2,2.15,2.91.4.5.78,1.28,1.27,1.37,1,.19.71,1.44,1.62,1.51,0,.22,0,.28.12.28s.24-.09.34-.09a.12.12,0,0,1,.12.1c.22.92,1.13,1.28,1.75,1.67.46.29.76,1.06,1.42,1.06a.89.89,0,0,0,.36-.07h0c.06,0,.09.17.05.27a.25.25,0,0,0,.21.33,4,4,0,0,1,1.71,1.11c.11.09.2.18.33.18H18a1.54,1.54,0,0,1,.74.32A16.34,16.34,0,0,0,20.5,71c.57.25,1.21.2,1.79.61.33.24,1,.21,1.43.42a.33.33,0,0,0,.14,0c.22,0,.47-.15.69-.15s.3.08.41.35a.51.51,0,0,1,.39-.22c.34,0,.65.47,1,.47a.43.43,0,0,0,.28-.11,7.79,7.79,0,0,0,3.05.56c1.51.15,3,0,4.58.15h.82A35.13,35.13,0,0,0,40,72.53a2.83,2.83,0,0,0,1-.16c1.3-.67,2.79-.66,4.14-1.2,1.12-.45,2.32-.7,3.48-1.07,1-.32,1.87-.89,2.83-1.23a12.79,12.79,0,0,0,2.79-1.4,28,28,0,0,0,5.63-4.6c1-1.08,1.84-2.27,2.81-3.37a14.45,14.45,0,0,0,2.1-2.94c.27-.55.67-1,.92-1.59s.29-1.29.85-1.64.42-.71.55-1c.33-.88.66-1.76,1-2.66a14.23,14.23,0,0,0,.8-2.3c.09-.6.69-1.08.39-1.77v-.06c.61-.18.45-.73.46-1.12a20.93,20.93,0,0,1,.25-3.06c.18-1,.09-2.09.3-3.14.17-.85-.28-1.82-.14-2.91-.16-.82-.36-1.78-.54-2.73-.09-.48-.26-.93-.32-1.43a19.4,19.4,0,0,0-.5-2.5c-.21-.83-.52-1.64-.76-2.46a4.61,4.61,0,0,0-.46-1.4c-.6-.87-.84-1.91-1.41-2.81-.71-1.13-1.22-2.37-2-3.48a42.47,42.47,0,0,0-2.92-3.76c-.84-.9-1.88-1.65-2.76-2.55a.25.25,0,0,0-.12-.08,5,5,0,0,1-1.86-1.21,25.78,25.78,0,0,0-3.15-2,18.28,18.28,0,0,0-3.9-1.63A20.11,20.11,0,0,0,43,5.9c-2-.09-4-.09-5.94-.21H36a39.74,39.74,0,0,0-5.11.44,19.45,19.45,0,0,0-5.16,1.66,22.1,22.1,0,0,1-2.35,1,1.09,1.09,0,0,1-.26.05c-.15,0-.25-.09-.35-.34-.45-1.17-.61-2.43-1.09-3.56S20.92,2.5,20.42,1.3C20,.41,19.74,0,19.25,0Z" transform="translate(0.04 0.01)"/><path class="cls-2" d="M36.06,21.14c.55,0,.82.38.82,1.2a3.94,3.94,0,0,0,0,1.53.9.9,0,0,0,.71,1,15.7,15.7,0,0,1,4,1.7,1.5,1.5,0,0,0,.61.19,1,1,0,0,0,.56-.22,18.65,18.65,0,0,1,2-1,.77.77,0,0,1,1.11.29c.44.58.77,1.24,1.2,1.82A.93.93,0,0,1,47,28.94a3.47,3.47,0,0,1-1.06.88.72.72,0,0,0-.39.94l0,.06c.21.74.46,1.49.74,2.21a1.18,1.18,0,0,0,.67.61c1,.4,1.9.83,2.86,1.23.2.09.23.21.29.4.34,1,.23,2.17.51,3.24a.77.77,0,0,1-.5,1l-.15,0A14.69,14.69,0,0,0,47.5,40.7c-.48.24-.42.75-.61,1.14a4.24,4.24,0,0,0,.3,4.83c.24.32.28.85.52,1.25s-.2.52-.4.65a5.66,5.66,0,0,0-2.11,1.74.49.49,0,0,1-.43.31.55.55,0,0,1-.41-.24,4.43,4.43,0,0,0-1.62-.92.79.79,0,0,0-.3-.08c-.41,0-.72.41-1.1.54-1.14.4-2.23,1-3.38,1.38-.6.21-.91.53-.79,1.1a6.61,6.61,0,0,1,0,1.09.87.87,0,0,1-.72,1,.66.66,0,0,1-.28,0h-.53a5.57,5.57,0,0,0-1.27.42,3.28,3.28,0,0,1-.7.1c-.57,0-.89-.29-1-1s-.6-1.31-.61-2.07a1,1,0,0,0-.56-.62c-.86-.32-1.64-.83-2.48-1.18A2.78,2.78,0,0,0,28,49.93a3,3,0,0,0-1.73.58c-.19.13-.41.24-.6.38a2.14,2.14,0,0,1-1.19.57c-.36,0-.7-.24-1.19-.71S22.43,50,22,49.61a.43.43,0,0,1-.08-.6l.08-.08a5.59,5.59,0,0,0,.63-1.77C23,45.94,22.39,45,22.14,44c-.2-.84-.74-1.64-.56-2.59a.69.69,0,0,0-.53-.77c-.8-.12-1.41-.68-2.2-.81s-1.27-1.55-1-2.34a2.11,2.11,0,0,0,.1-.61c.07-1.34.07-1.34,1.35-1.77a1.15,1.15,0,0,1,.37-.06h.58a1.25,1.25,0,0,0,.54-.12,2.49,2.49,0,0,1,1.07-.3c.6,0,.32-.57.45-.89A6.22,6.22,0,0,1,23,32.08a1,1,0,0,0,0-1.29,12.62,12.62,0,0,0-1.65-2,.84.84,0,0,1-.16-1.18l.11-.12c.44-.57,1-1,1.49-1.6a.56.56,0,0,1,.47-.26,1.66,1.66,0,0,1,1,.56c.48.46,1.25.45,1.6,1.09h.29c.58-.78,1.79-.52,2.31-1.39a.19.19,0,0,1,.17-.07h.15c.5-.44,1.19-.44,1.77-.76s1.31-.23,1.47-1a13.28,13.28,0,0,1,.76-2.11.79.79,0,0,1,.77-.62,1.62,1.62,0,0,1,.44.07,2.23,2.23,0,0,0,.63.09,4.24,4.24,0,0,0,1-.15,1.85,1.85,0,0,1,.47-.08Zm.13-.86H33.83a2.21,2.21,0,0,0-2.42,2,.28.28,0,0,0,0,.09c-.11.62-.21,1.47-1.09,1.72-.53.14-1,.43-1.51.59-.78.25-1.25,1-2.06,1.12-.31.06-.41.39-.48.79-.19-.26-.31-.4-.41-.55a3.15,3.15,0,0,0-2.69-1.76.63.63,0,0,0-.52.19,22.69,22.69,0,0,0-1.86,1.94c-.42.67-1.1,1.19-.77,2.26.22.7.86.82,1.1,1.39s.79.8.81,1.37a2.23,2.23,0,0,1-2,2.44h-.58A2.26,2.26,0,0,0,17,36v.1a13.35,13.35,0,0,1,0,2c-.1.41-.32,1,.05,1.43a2.7,2.7,0,0,0,1.38.89,5.24,5.24,0,0,1,1.82.77,1.11,1.11,0,0,1,.62.86,12.37,12.37,0,0,0,.36,1.71c.11.55.55.81.72,1.28.36,1-.24,1.7-.58,2.48-.67,1.55-.71,1.57.42,2.72a15.07,15.07,0,0,0,2.09,1.82,1.4,1.4,0,0,0,.76.29.74.74,0,0,0,.54-.23,5,5,0,0,1,1.36-.75,4,4,0,0,1,1.68-.57,1.76,1.76,0,0,1,1.16.44c.15.12.42.06.6.15.48.23,1.3.22,1.4.65a24.87,24.87,0,0,0,.84,2.66c.3.83.43,1,.94,1a4.49,4.49,0,0,0,.73-.06c.32,0,.6-.22.88-.22h.37c.44,0,.86-.08,1.3-.08h.64c.42,0,.63-.35.69-.74a10.78,10.78,0,0,0,.3-2.59c0-.21,0-.31.29-.39a23.58,23.58,0,0,0,2.52-1c.42-.15.81-.56,1.29-.56a.91.91,0,0,1,.4.1,6,6,0,0,1,1.84,1.09.84.84,0,0,0,.61.3.75.75,0,0,0,.61-.35c.79-1,2.2-1.41,2.72-2.85.39-1.08.6-1.25,0-2.32a6.67,6.67,0,0,1-.85-2c-.13-.63.32-1,.38-1.46a2.19,2.19,0,0,1,2-2.24,2,2,0,0,0,.87-.38c.48-.45,1.36-.68.94-1.69a10.4,10.4,0,0,1-.32-1.57,5.38,5.38,0,0,1-.22-1.83.85.85,0,0,0-.49-.82,17.86,17.86,0,0,0-2.77-1.29c-.92-.41-.69-1.2-1-1.77-.6-1,.2-1.29.69-1.7a1.63,1.63,0,0,0,.62-2.21L48,26.92c-.29-.49-.59-1-.89-1.45a2.76,2.76,0,0,0-2.05-1.22,1.06,1.06,0,0,0-.31.05,6.08,6.08,0,0,0-1.86.91,1.3,1.3,0,0,1-.77.32.66.66,0,0,1-.4-.13A11.13,11.13,0,0,0,38.49,24a.72.72,0,0,1-.61-.82v0a5.25,5.25,0,0,0-.07-1.19c-.07-1.29-.43-1.79-1.28-1.83Z" transform="translate(0.04 0.01)"/><path class="cls-2" d="M29.25,55.8a.77.77,0,0,0-.38.17,3.74,3.74,0,0,0-1.07,1.17c-.64,1-.6,2.16-1.27,3.07-.55.75-.28,1.76-.79,2.55-.11.17,0,.7.08,1a.2.2,0,0,0,.2.16.25.25,0,0,0,.23-.16,12.07,12.07,0,0,0,1.25-2.18c.23-.94.81-1.73,1.09-2.65a12.46,12.46,0,0,0,1-2.65,1.09,1.09,0,0,0-.14-.38.21.21,0,0,0-.19-.11Z" transform="translate(0.04 0.01)"/><path class="cls-2" d="M46.35,14.76a.46.46,0,0,0-.19.08,3.15,3.15,0,0,0-.77.35,14.31,14.31,0,0,0-1.87,2.45c-.67,1-1.24,2-1.87,3a1,1,0,0,0,0,.85.46.46,0,0,0,.5.31h.1c.36,0,.59-.18,1.12-.78.21-.23.09-.39,0-.6s0-.25,0-.38h.08c.5,0,.37-.61.61-.78.66-.5.29-1.76,1.4-1.87a7.33,7.33,0,0,1,1.08-2.21c.08-.15,0-.24-.07-.35s-.09-.12-.13-.12Z" transform="translate(0.04 0.01)"/><path class="cls-2" d="M50.79,18.48a.21.21,0,0,0-.11,0c-.78.36-1.56.74-2.31,1.14a31.8,31.8,0,0,1-3,1.91,1.05,1.05,0,0,0-.62.55c-.14.4.37.27.47.48s.16.21.24.21a.58.58,0,0,0,.3-.18,7.23,7.23,0,0,1,1.43-.88A24.5,24.5,0,0,0,50.86,19a2,2,0,0,0,.23-.27c-.06-.18-.17-.25-.28-.25Z" transform="translate(0.04 0.01)"/><path class="cls-2" d="M31.71,57.24h-.09c-.48,0-.46.36-.55.69a9,9,0,0,0,.1,3.06,3.69,3.69,0,0,0,.89,2.6,4.18,4.18,0,0,0,.32-1.2,15.74,15.74,0,0,0-.32-4.54c-.07-.26.11-.62-.35-.62Z" transform="translate(0.04 0.01)"/><path class="cls-2" d="M40.45,13.44a3.63,3.63,0,0,0-.91,2.28c-.25,1.19-.28,2.42-.43,3.63,0,.2,0,.33.14.33h.1c.4-.09.86,0,1-.65a15.85,15.85,0,0,0,.12-5.58Z" transform="translate(0.04 0.01)"/><path class="cls-2" d="M26.45,55c-.27,0-.45.34-.63.5a19.52,19.52,0,0,0-2.77,3.44,1.35,1.35,0,0,0-.29,1.19,6.28,6.28,0,0,0,1.69-1.39c.92-1,1.63-2,2.47-3,.16-.19.1-.32-.05-.48a.55.55,0,0,0-.39-.23Z" transform="translate(0.04 0.01)"/><path class="cls-2" d="M26.94,30.6a2.52,2.52,0,0,0-1.74,1.7,17.19,17.19,0,0,0-1.27,4.21,3.16,3.16,0,0,1,0,.87,7.25,7.25,0,0,0,.37,4.22,6.26,6.26,0,0,1,.54,1.34,4.22,4.22,0,0,0,1.33,2.28,6.44,6.44,0,0,0,4.67,2.65h.24c.13,0,.21,0,.3-.2.23-.42-.11-.47-.36-.61a11.53,11.53,0,0,1-3.24-2,8.72,8.72,0,0,1-1.63-1.9,17.82,17.82,0,0,1-1.06-3,11.09,11.09,0,0,1,.39-5.74A9.26,9.26,0,0,1,27,31.22c.21-.26.14-.48-.12-.59Z" transform="translate(0.04 0.01)"/><path class="cls-2" d="M34.68,35.2h0a3.23,3.23,0,0,1,3.42,3v.26c0,.81-2.07,2.41-3.13,2.42s-2.61-.93-2.6-2.06c0-1.89,1.22-3.65,2.3-3.65Zm-.15-1.36c-1.82,0-3.21,2.31-3.29,3.7a3.79,3.79,0,0,0,2.57,4,2.1,2.1,0,0,0,.89.2c.79,0,1.43-.46,2.19-.51s1-.8,1.41-1.24a2.55,2.55,0,0,0,.5-2.71A6.14,6.14,0,0,0,37.45,35,3.58,3.58,0,0,0,35,33.84h-.44Z" transform="translate(0.04 0.01)"/><path class="cls-2" d="M42,30.24c0,.76.73,1,1,1.51A10,10,0,0,1,44.26,36a36.12,36.12,0,0,1-.13,4.65,5.74,5.74,0,0,1-1.64,3.47c-.28.3-.42.77-.75,1-.62.34-.69,1-1.11,1.46a3.56,3.56,0,0,0,1.65-.87,6.34,6.34,0,0,0,2.65-3.88c.34-1.3.34-2.63.58-3.93a5.86,5.86,0,0,0-.16-2.79A13.7,13.7,0,0,0,44.25,32,3.23,3.23,0,0,0,42,30.28Z" transform="translate(0.04 0.01)"/><path class="cls-2" d="M34.92,26.76a6.74,6.74,0,0,0-1,.08,8.52,8.52,0,0,0-4.42,1.63,2.12,2.12,0,0,0-1,1.53,8.66,8.66,0,0,0,2.12-1.24,7.81,7.81,0,0,1,1.73-.69,6.75,6.75,0,0,1,2-.27,13.38,13.38,0,0,1,2,.17,7.76,7.76,0,0,1,2.8.71,2.91,2.91,0,0,0,1.32.61h.18c.28,0,.72,0,.86-.26.24-.53-.33-.5-.6-.68a10.14,10.14,0,0,0-4.34-1.43A10.82,10.82,0,0,0,35,26.78Z" transform="translate(0.04 0.01)"/><path class="cls-2" d="M37.83,47.52h-.12a12.14,12.14,0,0,0-2.47.49c-.37.07-.13.46-.23.7s.12.18.25.21h.29a3.28,3.28,0,0,0,2.28-1.07c.06-.11.28-.18.16-.32a.22.22,0,0,0-.16,0Z" transform="translate(0.04 0.01)"/></svg>